<?xml version="1.0" encoding="UTF-8"?>
<svg xmlns="http://www.w3.org/2000/svg" xmlns:xlink="http://www.w3.org/1999/xlink" fill-opacity="1" color-rendering="auto" color-interpolation="auto" stroke="black" text-rendering="auto" stroke-linecap="square" width="730" stroke-miterlimit="10" stroke-opacity="1" shape-rendering="auto" fill="black" stroke-dasharray="none" font-weight="normal" stroke-width="1" height="347" font-family="'Dialog'" font-style="normal" stroke-linejoin="miter" font-size="12" stroke-dashoffset="0" image-rendering="auto">
  <!--Generated by ySVG 2.5-->
  <defs id="genericDefs"/>
  <g>
    <defs id="defs1">
      <linearGradient x1="195.5" gradientUnits="userSpaceOnUse" x2="275.5" y1="318" y2="358" id="linearGradient1" spreadMethod="reflect">
        <stop stop-opacity="1" stop-color="rgb(232,238,247)" offset="0%"/>
        <stop stop-opacity="1" stop-color="rgb(183,201,227)" offset="100%"/>
      </linearGradient>
      <linearGradient x1="82" gradientUnits="userSpaceOnUse" x2="162" y1="381" y2="421" id="linearGradient2" spreadMethod="reflect">
        <stop stop-opacity="1" stop-color="rgb(232,238,247)" offset="0%"/>
        <stop stop-opacity="1" stop-color="rgb(183,201,227)" offset="100%"/>
      </linearGradient>
      <linearGradient x1="-44.5" gradientUnits="userSpaceOnUse" x2="35.5" y1="421.25" y2="461.25" id="linearGradient3" spreadMethod="reflect">
        <stop stop-opacity="1" stop-color="rgb(232,238,247)" offset="0%"/>
        <stop stop-opacity="1" stop-color="rgb(183,201,227)" offset="100%"/>
      </linearGradient>
      <linearGradient x1="-171" gradientUnits="userSpaceOnUse" x2="-91" y1="450.25" y2="490.25" id="linearGradient4" spreadMethod="reflect">
        <stop stop-opacity="1" stop-color="rgb(232,238,247)" offset="0%"/>
        <stop stop-opacity="1" stop-color="rgb(183,201,227)" offset="100%"/>
      </linearGradient>
      <linearGradient x1="82" gradientUnits="userSpaceOnUse" x2="162" y1="500.5" y2="540.5" id="linearGradient5" spreadMethod="reflect">
        <stop stop-opacity="1" stop-color="rgb(232,238,247)" offset="0%"/>
        <stop stop-opacity="1" stop-color="rgb(183,201,227)" offset="100%"/>
      </linearGradient>
      <linearGradient x1="207" gradientUnits="userSpaceOnUse" x2="287" y1="421.25" y2="461.25" id="linearGradient6" spreadMethod="reflect">
        <stop stop-opacity="1" stop-color="rgb(232,238,247)" offset="0%"/>
        <stop stop-opacity="1" stop-color="rgb(183,201,227)" offset="100%"/>
      </linearGradient>
      <linearGradient x1="213.5" gradientUnits="userSpaceOnUse" x2="293.5" y1="524.5" y2="564.5" id="linearGradient7" spreadMethod="reflect">
        <stop stop-opacity="1" stop-color="rgb(232,238,247)" offset="0%"/>
        <stop stop-opacity="1" stop-color="rgb(183,201,227)" offset="100%"/>
      </linearGradient>
      <linearGradient x1="399.5" gradientUnits="userSpaceOnUse" x2="479.5" y1="388" y2="428" id="linearGradient8" spreadMethod="reflect">
        <stop stop-opacity="1" stop-color="rgb(232,238,247)" offset="0%"/>
        <stop stop-opacity="1" stop-color="rgb(183,201,227)" offset="100%"/>
      </linearGradient>
      <linearGradient x1="-141" gradientUnits="userSpaceOnUse" x2="-121" y1="527.25" y2="547.25" id="linearGradient9" spreadMethod="reflect">
        <stop stop-opacity="1" stop-color="rgb(232,238,247)" offset="0%"/>
        <stop stop-opacity="1" stop-color="rgb(183,201,227)" offset="100%"/>
      </linearGradient>
      <linearGradient x1="-14.5" gradientUnits="userSpaceOnUse" x2="5.5" y1="500.5" y2="520.5" id="linearGradient10" spreadMethod="reflect">
        <stop stop-opacity="1" stop-color="rgb(232,238,247)" offset="0%"/>
        <stop stop-opacity="1" stop-color="rgb(183,201,227)" offset="100%"/>
      </linearGradient>
      <linearGradient x1="112" gradientUnits="userSpaceOnUse" x2="132" y1="599" y2="619" id="linearGradient11" spreadMethod="reflect">
        <stop stop-opacity="1" stop-color="rgb(232,238,247)" offset="0%"/>
        <stop stop-opacity="1" stop-color="rgb(183,201,227)" offset="100%"/>
      </linearGradient>
      <linearGradient x1="243.5" gradientUnits="userSpaceOnUse" x2="263.5" y1="615" y2="635" id="linearGradient12" spreadMethod="reflect">
        <stop stop-opacity="1" stop-color="rgb(232,238,247)" offset="0%"/>
        <stop stop-opacity="1" stop-color="rgb(183,201,227)" offset="100%"/>
      </linearGradient>
      <linearGradient x1="304" gradientUnits="userSpaceOnUse" x2="324" y1="534.5" y2="554.5" id="linearGradient13" spreadMethod="reflect">
        <stop stop-opacity="1" stop-color="rgb(232,238,247)" offset="0%"/>
        <stop stop-opacity="1" stop-color="rgb(183,201,227)" offset="100%"/>
      </linearGradient>
      <linearGradient x1="295" gradientUnits="userSpaceOnUse" x2="315" y1="431.25" y2="451.25" id="linearGradient14" spreadMethod="reflect">
        <stop stop-opacity="1" stop-color="rgb(232,238,247)" offset="0%"/>
        <stop stop-opacity="1" stop-color="rgb(183,201,227)" offset="100%"/>
      </linearGradient>
      <linearGradient x1="429.5" gradientUnits="userSpaceOnUse" x2="449.5" y1="460.25" y2="480.25" id="linearGradient15" spreadMethod="reflect">
        <stop stop-opacity="1" stop-color="rgb(232,238,247)" offset="0%"/>
        <stop stop-opacity="1" stop-color="rgb(183,201,227)" offset="100%"/>
      </linearGradient>
      <linearGradient x1="508" gradientUnits="userSpaceOnUse" x2="528" y1="398" y2="418" id="linearGradient16" spreadMethod="reflect">
        <stop stop-opacity="1" stop-color="rgb(232,238,247)" offset="0%"/>
        <stop stop-opacity="1" stop-color="rgb(183,201,227)" offset="100%"/>
      </linearGradient>
      <linearGradient x1="300" gradientUnits="userSpaceOnUse" x2="380" y1="357" y2="397" id="linearGradient17" spreadMethod="reflect">
        <stop stop-opacity="1" stop-color="rgb(232,238,247)" offset="0%"/>
        <stop stop-opacity="1" stop-color="red" offset="100%"/>
      </linearGradient>
      <clipPath clipPathUnits="userSpaceOnUse" id="clipPath1">
        <path d="M0 0 L730 0 L730 347 L0 347 L0 0 Z"/>
      </clipPath>
      <clipPath clipPathUnits="userSpaceOnUse" id="clipPath2">
        <path d="M-186 303 L544 303 L544 650 L-186 650 L-186 303 Z"/>
      </clipPath>
    </defs>
    <g fill="white" text-rendering="optimizeQuality" shape-rendering="geometricPrecision" transform="translate(186,-303)" stroke="white">
      <rect x="-186" width="730" height="347" y="303" clip-path="url(#clipPath2)" stroke="none"/>
    </g>
    <g fill="url(#linearGradient1)" text-rendering="optimizeQuality" shape-rendering="geometricPrecision" transform="matrix(1,0,0,1,186,-303)" stroke="url(#linearGradient1)">
      <circle r="20" clip-path="url(#clipPath2)" cx="235.5" cy="338" stroke="none"/>
    </g>
    <g text-rendering="optimizeQuality" stroke-miterlimit="1.45" shape-rendering="geometricPrecision" transform="matrix(1,0,0,1,186,-303)" stroke-linecap="butt">
      <circle fill="none" r="20" clip-path="url(#clipPath2)" cx="235.5" cy="338"/>
      <text x="231.6826" xml:space="preserve" y="342.1562" font-family="sans-serif" clip-path="url(#clipPath2)" stroke="none">1</text>
    </g>
    <g fill="url(#linearGradient2)" text-rendering="optimizeQuality" shape-rendering="geometricPrecision" transform="matrix(1,0,0,1,186,-303)" stroke="url(#linearGradient2)">
      <circle r="20" clip-path="url(#clipPath2)" cx="122" cy="401" stroke="none"/>
    </g>
    <g text-rendering="optimizeQuality" stroke-miterlimit="1.45" shape-rendering="geometricPrecision" transform="matrix(1,0,0,1,186,-303)" stroke-linecap="butt">
      <circle fill="none" r="20" clip-path="url(#clipPath2)" cx="122" cy="401"/>
      <text x="118.1826" xml:space="preserve" y="405.1562" font-family="sans-serif" clip-path="url(#clipPath2)" stroke="none">2</text>
    </g>
    <g fill="url(#linearGradient3)" text-rendering="optimizeQuality" shape-rendering="geometricPrecision" transform="matrix(1,0,0,1,186,-303)" stroke="url(#linearGradient3)">
      <circle r="20" clip-path="url(#clipPath2)" cx="-4.5" cy="441.25" stroke="none"/>
    </g>
    <g text-rendering="optimizeQuality" stroke-miterlimit="1.45" shape-rendering="geometricPrecision" transform="matrix(1,0,0,1,186,-303)" stroke-linecap="butt">
      <circle fill="none" r="20" clip-path="url(#clipPath2)" cx="-4.5" cy="441.25"/>
      <text x="-8.3174" xml:space="preserve" y="445.4062" font-family="sans-serif" clip-path="url(#clipPath2)" stroke="none">3</text>
    </g>
    <g fill="url(#linearGradient4)" text-rendering="optimizeQuality" shape-rendering="geometricPrecision" transform="matrix(1,0,0,1,186,-303)" stroke="url(#linearGradient4)">
      <circle r="20" clip-path="url(#clipPath2)" cx="-131" cy="470.25" stroke="none"/>
    </g>
    <g text-rendering="optimizeQuality" stroke-miterlimit="1.45" shape-rendering="geometricPrecision" transform="matrix(1,0,0,1,186,-303)" stroke-linecap="butt">
      <circle fill="none" r="20" clip-path="url(#clipPath2)" cx="-131" cy="470.25"/>
      <text x="-134.8174" xml:space="preserve" y="474.4062" font-family="sans-serif" clip-path="url(#clipPath2)" stroke="none">4</text>
    </g>
    <g fill="url(#linearGradient5)" text-rendering="optimizeQuality" shape-rendering="geometricPrecision" transform="matrix(1,0,0,1,186,-303)" stroke="url(#linearGradient5)">
      <circle r="20" clip-path="url(#clipPath2)" cx="122" cy="520.5" stroke="none"/>
    </g>
    <g text-rendering="optimizeQuality" stroke-miterlimit="1.45" shape-rendering="geometricPrecision" transform="matrix(1,0,0,1,186,-303)" stroke-linecap="butt">
      <circle fill="none" r="20" clip-path="url(#clipPath2)" cx="122" cy="520.5"/>
      <text x="118.1826" xml:space="preserve" y="524.6562" font-family="sans-serif" clip-path="url(#clipPath2)" stroke="none">6</text>
    </g>
    <g fill="url(#linearGradient6)" text-rendering="optimizeQuality" shape-rendering="geometricPrecision" transform="matrix(1,0,0,1,186,-303)" stroke="url(#linearGradient6)">
      <circle r="20" clip-path="url(#clipPath2)" cx="247" cy="441.25" stroke="none"/>
    </g>
    <g text-rendering="optimizeQuality" stroke-miterlimit="1.45" shape-rendering="geometricPrecision" transform="matrix(1,0,0,1,186,-303)" stroke-linecap="butt">
      <circle fill="none" r="20" clip-path="url(#clipPath2)" cx="247" cy="441.25"/>
      <text x="243.1826" xml:space="preserve" y="445.4062" font-family="sans-serif" clip-path="url(#clipPath2)" stroke="none">7</text>
    </g>
    <g fill="url(#linearGradient7)" text-rendering="optimizeQuality" shape-rendering="geometricPrecision" transform="matrix(1,0,0,1,186,-303)" stroke="url(#linearGradient7)">
      <circle r="20" clip-path="url(#clipPath2)" cx="253.5" cy="544.5" stroke="none"/>
    </g>
    <g text-rendering="optimizeQuality" stroke-miterlimit="1.45" shape-rendering="geometricPrecision" transform="matrix(1,0,0,1,186,-303)" stroke-linecap="butt">
      <circle fill="none" r="20" clip-path="url(#clipPath2)" cx="253.5" cy="544.5"/>
      <text x="249.6826" xml:space="preserve" y="548.6562" font-family="sans-serif" clip-path="url(#clipPath2)" stroke="none">8</text>
    </g>
    <g fill="url(#linearGradient8)" text-rendering="optimizeQuality" shape-rendering="geometricPrecision" transform="matrix(1,0,0,1,186,-303)" stroke="url(#linearGradient8)">
      <circle r="20" clip-path="url(#clipPath2)" cx="439.5" cy="408" stroke="none"/>
    </g>
    <g text-rendering="optimizeQuality" stroke-miterlimit="1.45" shape-rendering="geometricPrecision" transform="matrix(1,0,0,1,186,-303)" stroke-linecap="butt">
      <circle fill="none" r="20" clip-path="url(#clipPath2)" cx="439.5" cy="408"/>
      <text x="431.8652" xml:space="preserve" y="412.1562" font-family="sans-serif" clip-path="url(#clipPath2)" stroke="none">12</text>
    </g>
    <g fill="url(#linearGradient9)" text-rendering="optimizeQuality" shape-rendering="geometricPrecision" transform="matrix(1,0,0,1,186,-303)" stroke="url(#linearGradient9)">
      <path d="M-141 527.25 L-121 527.25 L-121 547.25 L-141 547.25 Z" clip-path="url(#clipPath2)" stroke="none"/>
    </g>
    <g text-rendering="optimizeQuality" stroke-miterlimit="1.45" shape-rendering="geometricPrecision" transform="matrix(1,0,0,1,186,-303)" stroke-linecap="butt">
      <path fill="none" d="M-141 527.25 L-121 527.25 L-121 547.25 L-141 547.25 Z" clip-path="url(#clipPath2)"/>
      <text x="-134.8174" xml:space="preserve" y="541.4062" font-family="sans-serif" clip-path="url(#clipPath2)" stroke="none">6</text>
    </g>
    <g fill="url(#linearGradient10)" text-rendering="optimizeQuality" shape-rendering="geometricPrecision" transform="matrix(1,0,0,1,186,-303)" stroke="url(#linearGradient10)">
      <path d="M-14.5 500.5 L5.5 500.5 L5.5 520.5 L-14.5 520.5 Z" clip-path="url(#clipPath2)" stroke="none"/>
    </g>
    <g text-rendering="optimizeQuality" stroke-miterlimit="1.45" shape-rendering="geometricPrecision" transform="matrix(1,0,0,1,186,-303)" stroke-linecap="butt">
      <path fill="none" d="M-14.5 500.5 L5.5 500.5 L5.5 520.5 L-14.5 520.5 Z" clip-path="url(#clipPath2)"/>
      <text x="-8.3174" xml:space="preserve" y="514.6562" font-family="sans-serif" clip-path="url(#clipPath2)" stroke="none">1</text>
    </g>
    <g fill="url(#linearGradient11)" text-rendering="optimizeQuality" shape-rendering="geometricPrecision" transform="matrix(1,0,0,1,186,-303)" stroke="url(#linearGradient11)">
      <path d="M112 599 L132 599 L132 619 L112 619 Z" clip-path="url(#clipPath2)" stroke="none"/>
    </g>
    <g text-rendering="optimizeQuality" stroke-miterlimit="1.45" shape-rendering="geometricPrecision" transform="matrix(1,0,0,1,186,-303)" stroke-linecap="butt">
      <path fill="none" d="M112 599 L132 599 L132 619 L112 619 Z" clip-path="url(#clipPath2)"/>
      <text x="118.1826" xml:space="preserve" y="613.1562" font-family="sans-serif" clip-path="url(#clipPath2)" stroke="none">3</text>
    </g>
    <g fill="url(#linearGradient12)" text-rendering="optimizeQuality" shape-rendering="geometricPrecision" transform="matrix(1,0,0,1,186,-303)" stroke="url(#linearGradient12)">
      <path d="M243.5 615 L263.5 615 L263.5 635 L243.5 635 Z" clip-path="url(#clipPath2)" stroke="none"/>
    </g>
    <g text-rendering="optimizeQuality" stroke-miterlimit="1.45" shape-rendering="geometricPrecision" transform="matrix(1,0,0,1,186,-303)" stroke-linecap="butt">
      <path fill="none" d="M243.5 615 L263.5 615 L263.5 635 L243.5 635 Z" clip-path="url(#clipPath2)"/>
      <text x="249.6826" xml:space="preserve" y="629.1562" font-family="sans-serif" clip-path="url(#clipPath2)" stroke="none">5</text>
    </g>
    <g fill="url(#linearGradient13)" text-rendering="optimizeQuality" shape-rendering="geometricPrecision" transform="matrix(1,0,0,1,186,-303)" stroke="url(#linearGradient13)">
      <path d="M304 534.5 L324 534.5 L324 554.5 L304 554.5 Z" clip-path="url(#clipPath2)" stroke="none"/>
    </g>
    <g text-rendering="optimizeQuality" stroke-miterlimit="1.45" shape-rendering="geometricPrecision" transform="matrix(1,0,0,1,186,-303)" stroke-linecap="butt">
      <path fill="none" d="M304 534.5 L324 534.5 L324 554.5 L304 554.5 Z" clip-path="url(#clipPath2)"/>
      <text x="310.1826" xml:space="preserve" y="548.6562" font-family="sans-serif" clip-path="url(#clipPath2)" stroke="none">2</text>
    </g>
    <g fill="url(#linearGradient14)" text-rendering="optimizeQuality" shape-rendering="geometricPrecision" transform="matrix(1,0,0,1,186,-303)" stroke="url(#linearGradient14)">
      <path d="M295 431.25 L315 431.25 L315 451.25 L295 451.25 Z" clip-path="url(#clipPath2)" stroke="none"/>
    </g>
    <g text-rendering="optimizeQuality" stroke-miterlimit="1.45" shape-rendering="geometricPrecision" transform="matrix(1,0,0,1,186,-303)" stroke-linecap="butt">
      <path fill="none" d="M295 431.25 L315 431.25 L315 451.25 L295 451.25 Z" clip-path="url(#clipPath2)"/>
      <text x="301.1826" xml:space="preserve" y="445.4062" font-family="sans-serif" clip-path="url(#clipPath2)" stroke="none">7</text>
    </g>
    <g fill="url(#linearGradient15)" text-rendering="optimizeQuality" shape-rendering="geometricPrecision" transform="matrix(1,0,0,1,186,-303)" stroke="url(#linearGradient15)">
      <path d="M429.5 460.25 L449.5 460.25 L449.5 480.25 L429.5 480.25 Z" clip-path="url(#clipPath2)" stroke="none"/>
    </g>
    <g text-rendering="optimizeQuality" stroke-miterlimit="1.45" shape-rendering="geometricPrecision" transform="matrix(1,0,0,1,186,-303)" stroke-linecap="butt">
      <path fill="none" d="M429.5 460.25 L449.5 460.25 L449.5 480.25 L429.5 480.25 Z" clip-path="url(#clipPath2)"/>
      <text x="435.6826" xml:space="preserve" y="474.4062" font-family="sans-serif" clip-path="url(#clipPath2)" stroke="none">4</text>
    </g>
    <g fill="url(#linearGradient16)" text-rendering="optimizeQuality" shape-rendering="geometricPrecision" transform="matrix(1,0,0,1,186,-303)" stroke="url(#linearGradient16)">
      <path d="M508 398 L528 398 L528 418 L508 418 Z" clip-path="url(#clipPath2)" stroke="none"/>
    </g>
    <g text-rendering="optimizeQuality" stroke-miterlimit="1.45" shape-rendering="geometricPrecision" transform="matrix(1,0,0,1,186,-303)" stroke-linecap="butt">
      <path fill="none" d="M508 398 L528 398 L528 418 L508 418 Z" clip-path="url(#clipPath2)"/>
      <text x="514.1826" xml:space="preserve" y="412.1562" font-family="sans-serif" clip-path="url(#clipPath2)" stroke="none">8</text>
    </g>
    <g fill="url(#linearGradient17)" text-rendering="optimizeQuality" shape-rendering="geometricPrecision" transform="matrix(1,0,0,1,186,-303)" stroke="url(#linearGradient17)">
      <circle r="20" clip-path="url(#clipPath2)" cx="340" cy="377" stroke="none"/>
    </g>
    <g text-rendering="optimizeQuality" stroke-miterlimit="1.45" shape-rendering="geometricPrecision" transform="matrix(1,0,0,1,186,-303)" stroke-linecap="butt">
      <circle fill="none" r="20" clip-path="url(#clipPath2)" cx="340" cy="377"/>
      <text x="332.3652" xml:space="preserve" y="381.1562" font-family="sans-serif" clip-path="url(#clipPath2)" stroke="none">15</text>
    </g>
    <g text-rendering="optimizeQuality" stroke-miterlimit="1.45" shape-rendering="geometricPrecision" transform="matrix(1,0,0,1,186,-303)" stroke-linecap="butt">
      <path fill="none" d="M218.015 347.7053 L146.4584 387.424" clip-path="url(#clipPath2)"/>
    </g>
    <g text-rendering="optimizeQuality" stroke-miterlimit="1.45" shape-rendering="geometricPrecision" transform="matrix(1,0,0,1,186,-303)" stroke-linecap="butt">
      <path d="M139.4637 391.3065 L152.3823 389.8544 L147.3327 386.9387 L147.5291 381.111 Z" clip-path="url(#clipPath2)" stroke="none"/>
      <text x="177.5624" xml:space="preserve" y="357.9924" font-family="sans-serif" clip-path="url(#clipPath2)" stroke="none">a</text>
      <path fill="none" d="M102.9447 407.063 L22.1938 432.7565" clip-path="url(#clipPath2)"/>
      <path d="M14.5704 435.1822 L27.5215 436.3083 L23.1467 432.4533 L24.4895 426.7791 Z" clip-path="url(#clipPath2)" stroke="none"/>
      <text x="47.1731" xml:space="preserve" y="396.7343" font-family="sans-serif" clip-path="url(#clipPath2)" stroke="none">t</text>
      <path fill="none" d="M-23.9877 445.7175 L-103.6861 463.9883" clip-path="url(#clipPath2)"/>
      <path d="M-111.4838 465.7759 L-98.67 467.9681 L-102.7114 463.7649 L-100.9045 458.2209 Z" clip-path="url(#clipPath2)" stroke="none"/>
      <text x="-77.1023" y="430.8899" clip-path="url(#clipPath2)" fill="red" font-family="sans-serif" stroke="none" xml:space="preserve">l</text>
      <path fill="none" d="M122 420.9847 L122 492.5289" clip-path="url(#clipPath2)"/>
      <path d="M122 500.5289 L127 488.5289 L122 491.5289 L117 488.5289 Z" clip-path="url(#clipPath2)" stroke="none"/>
      <text x="150.333" y="464.9062" clip-path="url(#clipPath2)" fill="red" font-family="sans-serif" stroke="none" xml:space="preserve">l</text>
      <path fill="none" d="M237.7152 357.8887 L243.8975 413.395" clip-path="url(#clipPath2)"/>
      <path d="M244.7831 421.3459 L248.424 408.8661 L243.7868 412.4012 L238.4854 409.9731 Z" clip-path="url(#clipPath2)" stroke="none"/>
      <text x="269.083" xml:space="preserve" y="393.7812" font-family="sans-serif" clip-path="url(#clipPath2)" stroke="none">t</text>
      <path fill="none" d="M248.2552 461.1891 L251.74 516.5424" clip-path="url(#clipPath2)"/>
      <path d="M252.2426 524.5266 L256.4788 512.2361 L251.6771 515.5443 L246.4985 512.8644 Z" clip-path="url(#clipPath2)" stroke="none"/>
      <text x="216.5139" xml:space="preserve" y="497.0312" font-family="sans-serif" clip-path="url(#clipPath2)" stroke="none">a</text>
      <path fill="none" d="M-131 490.2388 L-131 519.2877" clip-path="url(#clipPath2)"/>
      <path d="M-131 527.2877 L-126 515.2877 L-131 518.2877 L-136 515.2877 Z" clip-path="url(#clipPath2)" stroke="none"/>
      <path fill="none" d="M-4.5 461.2338 L-4.5 492.5409" clip-path="url(#clipPath2)" stroke="red"/>
      <path fill="red" d="M-4.5 500.5409 L0.5 488.5409 L-4.5 491.5409 L-9.5 488.5409 Z" clip-path="url(#clipPath2)" stroke="none"/>
      <path fill="none" d="M122 540.5076 L122 591.0004" clip-path="url(#clipPath2)"/>
      <path d="M122 599.0004 L127 587.0004 L122 590.0004 L117 587.0004 Z" clip-path="url(#clipPath2)" stroke="none"/>
      <path fill="none" d="M253.5 564.5071 L253.5 606.9868" clip-path="url(#clipPath2)" stroke="red"/>
      <path fill="red" d="M253.5 614.9868 L258.5 602.9868 L253.5 605.9868 L248.5 602.9868 Z" clip-path="url(#clipPath2)" stroke="none"/>
      <path fill="none" d="M273.4993 544.5 L295.9935 544.5" clip-path="url(#clipPath2)" stroke="red"/>
      <path fill="red" d="M303.9935 544.5 L291.9935 539.5 L294.9935 544.5 L291.9935 549.5 Z" clip-path="url(#clipPath2)" stroke="none"/>
      <path fill="none" d="M267.0225 441.25 L287.0235 441.25" clip-path="url(#clipPath2)" stroke="red"/>
      <path fill="red" d="M295.0235 441.25 L283.0235 436.25 L286.0235 441.25 L283.0235 446.25 Z" clip-path="url(#clipPath2)" stroke="none"/>
      <path fill="none" d="M439.5 427.9698 L439.5 452.2167" clip-path="url(#clipPath2)" stroke="red"/>
      <path fill="red" d="M439.5 460.2167 L444.5 448.2167 L439.5 451.2167 L434.5 448.2167 Z" clip-path="url(#clipPath2)" stroke="none"/>
      <path fill="none" d="M459.47 408 L500.0259 408" clip-path="url(#clipPath2)" stroke="red"/>
      <path fill="red" d="M508.0259 408 L496.0259 403 L499.0259 408 L496.0259 413 Z" clip-path="url(#clipPath2)" stroke="none"/>
      <path fill="none" d="M254.2518 344.9983 L313.7894 367.218" clip-path="url(#clipPath2)"/>
      <path d="M321.2845 370.0153 L311.7901 361.135 L312.8525 366.8684 L308.2936 370.5038 Z" clip-path="url(#clipPath2)" stroke="none"/>
      <text x="296.5725" y="333.5498" clip-path="url(#clipPath2)" fill="red" font-family="sans-serif" stroke="none" xml:space="preserve">l</text>
      <path fill="none" d="M359.1178 382.9563 L412.7478 399.6651" clip-path="url(#clipPath2)"/>
      <path d="M420.3857 402.0448 L410.4161 393.7016 L411.7931 399.3677 L407.4416 403.249 Z" clip-path="url(#clipPath2)" stroke="none"/>
      <text x="396.5356" y="368.081" clip-path="url(#clipPath2)" fill="red" font-family="sans-serif" stroke="none" xml:space="preserve">t</text>
    </g>
  </g>
</svg>
