<?xml version="1.0" encoding="UTF-8"?>
<svg xmlns="http://www.w3.org/2000/svg" xmlns:xlink="http://www.w3.org/1999/xlink" fill-opacity="1" color-rendering="auto" color-interpolation="auto" stroke="black" text-rendering="auto" stroke-linecap="square" width="790" stroke-miterlimit="10" stroke-opacity="1" shape-rendering="auto" fill="black" stroke-dasharray="none" font-weight="normal" stroke-width="1" height="488" font-family="'Dialog'" font-style="normal" stroke-linejoin="miter" font-size="12" stroke-dashoffset="0" image-rendering="auto">
  <!--Generated by ySVG 2.5-->
  <defs id="genericDefs"/>
  <g>
    <defs id="defs1">
      <linearGradient x1="195.5" gradientUnits="userSpaceOnUse" x2="275.5" y1="318" y2="358" id="linearGradient1" spreadMethod="reflect">
        <stop stop-opacity="1" stop-color="rgb(232,238,247)" offset="0%"/>
        <stop stop-opacity="1" stop-color="rgb(183,201,227)" offset="100%"/>
      </linearGradient>
      <linearGradient x1="82" gradientUnits="userSpaceOnUse" x2="162" y1="381" y2="421" id="linearGradient2" spreadMethod="reflect">
        <stop stop-opacity="1" stop-color="rgb(232,238,247)" offset="0%"/>
        <stop stop-opacity="1" stop-color="rgb(183,201,227)" offset="100%"/>
      </linearGradient>
      <linearGradient x1="-44.5" gradientUnits="userSpaceOnUse" x2="35.5" y1="428" y2="468" id="linearGradient3" spreadMethod="reflect">
        <stop stop-opacity="1" stop-color="rgb(232,238,247)" offset="0%"/>
        <stop stop-opacity="1" stop-color="rgb(183,201,227)" offset="100%"/>
      </linearGradient>
      <linearGradient x1="-195" gradientUnits="userSpaceOnUse" x2="-115" y1="436" y2="476" id="linearGradient4" spreadMethod="reflect">
        <stop stop-opacity="1" stop-color="rgb(232,238,247)" offset="0%"/>
        <stop stop-opacity="1" stop-color="rgb(183,201,227)" offset="100%"/>
      </linearGradient>
      <linearGradient x1="-114" gradientUnits="userSpaceOnUse" x2="-34" y1="553" y2="593" id="linearGradient5" spreadMethod="reflect">
        <stop stop-opacity="1" stop-color="rgb(232,238,247)" offset="0%"/>
        <stop stop-opacity="1" stop-color="rgb(183,201,227)" offset="100%"/>
      </linearGradient>
      <linearGradient x1="22" gradientUnits="userSpaceOnUse" x2="102" y1="533" y2="573" id="linearGradient6" spreadMethod="reflect">
        <stop stop-opacity="1" stop-color="rgb(232,238,247)" offset="0%"/>
        <stop stop-opacity="1" stop-color="rgb(183,201,227)" offset="100%"/>
      </linearGradient>
      <linearGradient x1="215" gradientUnits="userSpaceOnUse" x2="295" y1="440.25" y2="480.25" id="linearGradient7" spreadMethod="reflect">
        <stop stop-opacity="1" stop-color="rgb(232,238,247)" offset="0%"/>
        <stop stop-opacity="1" stop-color="rgb(183,201,227)" offset="100%"/>
      </linearGradient>
      <linearGradient x1="195.5" gradientUnits="userSpaceOnUse" x2="275.5" y1="562.5" y2="602.5" id="linearGradient8" spreadMethod="reflect">
        <stop stop-opacity="1" stop-color="rgb(232,238,247)" offset="0%"/>
        <stop stop-opacity="1" stop-color="rgb(183,201,227)" offset="100%"/>
      </linearGradient>
      <linearGradient x1="98" gradientUnits="userSpaceOnUse" x2="178" y1="652" y2="692" id="linearGradient9" spreadMethod="reflect">
        <stop stop-opacity="1" stop-color="rgb(232,238,247)" offset="0%"/>
        <stop stop-opacity="1" stop-color="rgb(183,201,227)" offset="100%"/>
      </linearGradient>
      <linearGradient x1="274" gradientUnits="userSpaceOnUse" x2="354" y1="687" y2="727" id="linearGradient10" spreadMethod="reflect">
        <stop stop-opacity="1" stop-color="rgb(232,238,247)" offset="0%"/>
        <stop stop-opacity="1" stop-color="rgb(183,201,227)" offset="100%"/>
      </linearGradient>
      <linearGradient x1="341" gradientUnits="userSpaceOnUse" x2="421" y1="553" y2="593" id="linearGradient11" spreadMethod="reflect">
        <stop stop-opacity="1" stop-color="rgb(232,238,247)" offset="0%"/>
        <stop stop-opacity="1" stop-color="rgb(183,201,227)" offset="100%"/>
      </linearGradient>
      <linearGradient x1="305.5" gradientUnits="userSpaceOnUse" x2="385.5" y1="351" y2="391" id="linearGradient12" spreadMethod="reflect">
        <stop stop-opacity="1" stop-color="rgb(232,238,247)" offset="0%"/>
        <stop stop-opacity="1" stop-color="rgb(183,201,227)" offset="100%"/>
      </linearGradient>
      <linearGradient x1="415.5" gradientUnits="userSpaceOnUse" x2="495.5" y1="462" y2="502" id="linearGradient13" spreadMethod="reflect">
        <stop stop-opacity="1" stop-color="rgb(232,238,247)" offset="0%"/>
        <stop stop-opacity="1" stop-color="rgb(183,201,227)" offset="100%"/>
      </linearGradient>
      <linearGradient x1="485" gradientUnits="userSpaceOnUse" x2="565" y1="357" y2="397" id="linearGradient14" spreadMethod="reflect">
        <stop stop-opacity="1" stop-color="rgb(232,238,247)" offset="0%"/>
        <stop stop-opacity="1" stop-color="rgb(183,201,227)" offset="100%"/>
      </linearGradient>
      <linearGradient x1="-165" gradientUnits="userSpaceOnUse" x2="-145" y1="500.5" y2="520.5" id="linearGradient15" spreadMethod="reflect">
        <stop stop-opacity="1" stop-color="rgb(232,238,247)" offset="0%"/>
        <stop stop-opacity="1" stop-color="rgb(183,201,227)" offset="100%"/>
      </linearGradient>
      <linearGradient x1="-84" gradientUnits="userSpaceOnUse" x2="-64" y1="608" y2="628" id="linearGradient16" spreadMethod="reflect">
        <stop stop-opacity="1" stop-color="rgb(232,238,247)" offset="0%"/>
        <stop stop-opacity="1" stop-color="rgb(183,201,227)" offset="100%"/>
      </linearGradient>
      <linearGradient x1="52" gradientUnits="userSpaceOnUse" x2="72" y1="596" y2="616" id="linearGradient17" spreadMethod="reflect">
        <stop stop-opacity="1" stop-color="rgb(232,238,247)" offset="0%"/>
        <stop stop-opacity="1" stop-color="rgb(183,201,227)" offset="100%"/>
      </linearGradient>
      <linearGradient x1="128" gradientUnits="userSpaceOnUse" x2="148" y1="707" y2="727" id="linearGradient18" spreadMethod="reflect">
        <stop stop-opacity="1" stop-color="rgb(232,238,247)" offset="0%"/>
        <stop stop-opacity="1" stop-color="rgb(183,201,227)" offset="100%"/>
      </linearGradient>
      <linearGradient x1="304" gradientUnits="userSpaceOnUse" x2="324" y1="755" y2="775" id="linearGradient19" spreadMethod="reflect">
        <stop stop-opacity="1" stop-color="rgb(232,238,247)" offset="0%"/>
        <stop stop-opacity="1" stop-color="rgb(183,201,227)" offset="100%"/>
      </linearGradient>
      <linearGradient x1="371" gradientUnits="userSpaceOnUse" x2="391" y1="608" y2="628" id="linearGradient20" spreadMethod="reflect">
        <stop stop-opacity="1" stop-color="rgb(232,238,247)" offset="0%"/>
        <stop stop-opacity="1" stop-color="rgb(183,201,227)" offset="100%"/>
      </linearGradient>
      <linearGradient x1="445.5" gradientUnits="userSpaceOnUse" x2="465.5" y1="527" y2="547" id="linearGradient21" spreadMethod="reflect">
        <stop stop-opacity="1" stop-color="rgb(232,238,247)" offset="0%"/>
        <stop stop-opacity="1" stop-color="rgb(183,201,227)" offset="100%"/>
      </linearGradient>
      <linearGradient x1="515" gradientUnits="userSpaceOnUse" x2="535" y1="417" y2="437" id="linearGradient22" spreadMethod="reflect">
        <stop stop-opacity="1" stop-color="rgb(232,238,247)" offset="0%"/>
        <stop stop-opacity="1" stop-color="rgb(183,201,227)" offset="100%"/>
      </linearGradient>
      <clipPath clipPathUnits="userSpaceOnUse" id="clipPath1">
        <path d="M0 0 L790 0 L790 488 L0 488 L0 0 Z"/>
      </clipPath>
      <clipPath clipPathUnits="userSpaceOnUse" id="clipPath2">
        <path d="M-210 302 L580 302 L580 790 L-210 790 L-210 302 Z"/>
      </clipPath>
    </defs>
    <g fill="white" text-rendering="optimizeQuality" shape-rendering="geometricPrecision" transform="translate(210,-302)" stroke="white">
      <rect x="-210" width="790" height="488" y="302" clip-path="url(#clipPath2)" stroke="none"/>
    </g>
    <g fill="url(#linearGradient1)" text-rendering="optimizeQuality" shape-rendering="geometricPrecision" transform="matrix(1,0,0,1,210,-302)" stroke="url(#linearGradient1)">
      <circle r="20" clip-path="url(#clipPath2)" cx="235.5" cy="338" stroke="none"/>
    </g>
    <g text-rendering="optimizeQuality" stroke-miterlimit="1.45" shape-rendering="geometricPrecision" transform="matrix(1,0,0,1,210,-302)" stroke-linecap="butt">
      <circle fill="none" r="20" clip-path="url(#clipPath2)" cx="235.5" cy="338"/>
      <text x="231.6826" xml:space="preserve" y="342.1562" font-family="sans-serif" clip-path="url(#clipPath2)" stroke="none">1</text>
    </g>
    <g fill="url(#linearGradient2)" text-rendering="optimizeQuality" shape-rendering="geometricPrecision" transform="matrix(1,0,0,1,210,-302)" stroke="url(#linearGradient2)">
      <circle r="20" clip-path="url(#clipPath2)" cx="122" cy="401" stroke="none"/>
    </g>
    <g text-rendering="optimizeQuality" stroke-miterlimit="1.45" shape-rendering="geometricPrecision" transform="matrix(1,0,0,1,210,-302)" stroke-linecap="butt">
      <circle fill="none" r="20" clip-path="url(#clipPath2)" cx="122" cy="401"/>
      <text x="118.1826" xml:space="preserve" y="405.1562" font-family="sans-serif" clip-path="url(#clipPath2)" stroke="none">2</text>
    </g>
    <g fill="url(#linearGradient3)" text-rendering="optimizeQuality" shape-rendering="geometricPrecision" transform="matrix(1,0,0,1,210,-302)" stroke="url(#linearGradient3)">
      <circle r="20" clip-path="url(#clipPath2)" cx="-4.5" cy="448" stroke="none"/>
    </g>
    <g text-rendering="optimizeQuality" stroke-miterlimit="1.45" shape-rendering="geometricPrecision" transform="matrix(1,0,0,1,210,-302)" stroke-linecap="butt">
      <circle fill="none" r="20" clip-path="url(#clipPath2)" cx="-4.5" cy="448"/>
      <text x="-8.3174" xml:space="preserve" y="452.1562" font-family="sans-serif" clip-path="url(#clipPath2)" stroke="none">3</text>
    </g>
    <g fill="url(#linearGradient4)" text-rendering="optimizeQuality" shape-rendering="geometricPrecision" transform="matrix(1,0,0,1,210,-302)" stroke="url(#linearGradient4)">
      <circle r="20" clip-path="url(#clipPath2)" cx="-155" cy="456" stroke="none"/>
    </g>
    <g text-rendering="optimizeQuality" stroke-miterlimit="1.45" shape-rendering="geometricPrecision" transform="matrix(1,0,0,1,210,-302)" stroke-linecap="butt">
      <circle fill="none" r="20" clip-path="url(#clipPath2)" cx="-155" cy="456"/>
      <text x="-158.8174" xml:space="preserve" y="460.1562" font-family="sans-serif" clip-path="url(#clipPath2)" stroke="none">4</text>
    </g>
    <g fill="url(#linearGradient5)" text-rendering="optimizeQuality" shape-rendering="geometricPrecision" transform="matrix(1,0,0,1,210,-302)" stroke="url(#linearGradient5)">
      <circle r="20" clip-path="url(#clipPath2)" cx="-74" cy="573" stroke="none"/>
    </g>
    <g text-rendering="optimizeQuality" stroke-miterlimit="1.45" shape-rendering="geometricPrecision" transform="matrix(1,0,0,1,210,-302)" stroke-linecap="butt">
      <circle fill="none" r="20" clip-path="url(#clipPath2)" cx="-74" cy="573"/>
      <text x="-77.8174" xml:space="preserve" y="577.1562" font-family="sans-serif" clip-path="url(#clipPath2)" stroke="none">5</text>
    </g>
    <g fill="url(#linearGradient6)" text-rendering="optimizeQuality" shape-rendering="geometricPrecision" transform="matrix(1,0,0,1,210,-302)" stroke="url(#linearGradient6)">
      <circle r="20" clip-path="url(#clipPath2)" cx="62" cy="553" stroke="none"/>
    </g>
    <g text-rendering="optimizeQuality" stroke-miterlimit="1.45" shape-rendering="geometricPrecision" transform="matrix(1,0,0,1,210,-302)" stroke-linecap="butt">
      <circle fill="none" r="20" clip-path="url(#clipPath2)" cx="62" cy="553"/>
      <text x="58.1826" xml:space="preserve" y="557.1562" font-family="sans-serif" clip-path="url(#clipPath2)" stroke="none">6</text>
    </g>
    <g fill="url(#linearGradient7)" text-rendering="optimizeQuality" shape-rendering="geometricPrecision" transform="matrix(1,0,0,1,210,-302)" stroke="url(#linearGradient7)">
      <circle r="20" clip-path="url(#clipPath2)" cx="255" cy="460.25" stroke="none"/>
    </g>
    <g text-rendering="optimizeQuality" stroke-miterlimit="1.45" shape-rendering="geometricPrecision" transform="matrix(1,0,0,1,210,-302)" stroke-linecap="butt">
      <circle fill="none" r="20" clip-path="url(#clipPath2)" cx="255" cy="460.25"/>
      <text x="251.1826" xml:space="preserve" y="464.4062" font-family="sans-serif" clip-path="url(#clipPath2)" stroke="none">7</text>
    </g>
    <g fill="url(#linearGradient8)" text-rendering="optimizeQuality" shape-rendering="geometricPrecision" transform="matrix(1,0,0,1,210,-302)" stroke="url(#linearGradient8)">
      <circle r="20" clip-path="url(#clipPath2)" cx="235.5" cy="582.5" stroke="none"/>
    </g>
    <g text-rendering="optimizeQuality" stroke-miterlimit="1.45" shape-rendering="geometricPrecision" transform="matrix(1,0,0,1,210,-302)" stroke-linecap="butt">
      <circle fill="none" r="20" clip-path="url(#clipPath2)" cx="235.5" cy="582.5"/>
      <text x="231.6826" xml:space="preserve" y="586.6562" font-family="sans-serif" clip-path="url(#clipPath2)" stroke="none">8</text>
    </g>
    <g fill="url(#linearGradient9)" text-rendering="optimizeQuality" shape-rendering="geometricPrecision" transform="matrix(1,0,0,1,210,-302)" stroke="url(#linearGradient9)">
      <circle r="20" clip-path="url(#clipPath2)" cx="138" cy="672" stroke="none"/>
    </g>
    <g text-rendering="optimizeQuality" stroke-miterlimit="1.45" shape-rendering="geometricPrecision" transform="matrix(1,0,0,1,210,-302)" stroke-linecap="butt">
      <circle fill="none" r="20" clip-path="url(#clipPath2)" cx="138" cy="672"/>
      <text x="134.1826" xml:space="preserve" y="676.1562" font-family="sans-serif" clip-path="url(#clipPath2)" stroke="none">9</text>
    </g>
    <g fill="url(#linearGradient10)" text-rendering="optimizeQuality" shape-rendering="geometricPrecision" transform="matrix(1,0,0,1,210,-302)" stroke="url(#linearGradient10)">
      <circle r="20" clip-path="url(#clipPath2)" cx="314" cy="707" stroke="none"/>
    </g>
    <g text-rendering="optimizeQuality" stroke-miterlimit="1.45" shape-rendering="geometricPrecision" transform="matrix(1,0,0,1,210,-302)" stroke-linecap="butt">
      <circle fill="none" r="20" clip-path="url(#clipPath2)" cx="314" cy="707"/>
      <text x="306.3652" xml:space="preserve" y="711.1562" font-family="sans-serif" clip-path="url(#clipPath2)" stroke="none">10</text>
    </g>
    <g fill="url(#linearGradient11)" text-rendering="optimizeQuality" shape-rendering="geometricPrecision" transform="matrix(1,0,0,1,210,-302)" stroke="url(#linearGradient11)">
      <circle r="20" clip-path="url(#clipPath2)" cx="381" cy="573" stroke="none"/>
    </g>
    <g text-rendering="optimizeQuality" stroke-miterlimit="1.45" shape-rendering="geometricPrecision" transform="matrix(1,0,0,1,210,-302)" stroke-linecap="butt">
      <circle fill="none" r="20" clip-path="url(#clipPath2)" cx="381" cy="573"/>
      <text x="373.3652" xml:space="preserve" y="577.1562" font-family="sans-serif" clip-path="url(#clipPath2)" stroke="none">11</text>
    </g>
    <g fill="url(#linearGradient12)" text-rendering="optimizeQuality" shape-rendering="geometricPrecision" transform="matrix(1,0,0,1,210,-302)" stroke="url(#linearGradient12)">
      <circle r="20" clip-path="url(#clipPath2)" cx="345.5" cy="371" stroke="none"/>
    </g>
    <g text-rendering="optimizeQuality" stroke-miterlimit="1.45" shape-rendering="geometricPrecision" transform="matrix(1,0,0,1,210,-302)" stroke-linecap="butt">
      <circle fill="none" r="20" clip-path="url(#clipPath2)" cx="345.5" cy="371"/>
      <text x="337.8652" xml:space="preserve" y="375.1562" font-family="sans-serif" clip-path="url(#clipPath2)" stroke="none">12</text>
    </g>
    <g fill="url(#linearGradient13)" text-rendering="optimizeQuality" shape-rendering="geometricPrecision" transform="matrix(1,0,0,1,210,-302)" stroke="url(#linearGradient13)">
      <circle r="20" clip-path="url(#clipPath2)" cx="455.5" cy="482" stroke="none"/>
    </g>
    <g text-rendering="optimizeQuality" stroke-miterlimit="1.45" shape-rendering="geometricPrecision" transform="matrix(1,0,0,1,210,-302)" stroke-linecap="butt">
      <circle fill="none" r="20" clip-path="url(#clipPath2)" cx="455.5" cy="482"/>
      <text x="447.8652" xml:space="preserve" y="486.1562" font-family="sans-serif" clip-path="url(#clipPath2)" stroke="none">13</text>
    </g>
    <g fill="url(#linearGradient14)" text-rendering="optimizeQuality" shape-rendering="geometricPrecision" transform="matrix(1,0,0,1,210,-302)" stroke="url(#linearGradient14)">
      <circle r="20" clip-path="url(#clipPath2)" cx="525" cy="377" stroke="none"/>
    </g>
    <g text-rendering="optimizeQuality" stroke-miterlimit="1.45" shape-rendering="geometricPrecision" transform="matrix(1,0,0,1,210,-302)" stroke-linecap="butt">
      <circle fill="none" r="20" clip-path="url(#clipPath2)" cx="525" cy="377"/>
      <text x="517.3652" xml:space="preserve" y="381.1562" font-family="sans-serif" clip-path="url(#clipPath2)" stroke="none">14</text>
    </g>
    <g fill="url(#linearGradient15)" text-rendering="optimizeQuality" shape-rendering="geometricPrecision" transform="matrix(1,0,0,1,210,-302)" stroke="url(#linearGradient15)">
      <path d="M-165 500.5 L-145 500.5 L-145 520.5 L-165 520.5 Z" clip-path="url(#clipPath2)" stroke="none"/>
    </g>
    <g text-rendering="optimizeQuality" stroke-miterlimit="1.45" shape-rendering="geometricPrecision" transform="matrix(1,0,0,1,210,-302)" stroke-linecap="butt">
      <path fill="none" d="M-165 500.5 L-145 500.5 L-145 520.5 L-165 520.5 Z" clip-path="url(#clipPath2)"/>
      <text x="-158.8174" xml:space="preserve" y="514.6562" font-family="sans-serif" clip-path="url(#clipPath2)" stroke="none">6</text>
    </g>
    <g fill="url(#linearGradient16)" text-rendering="optimizeQuality" shape-rendering="geometricPrecision" transform="matrix(1,0,0,1,210,-302)" stroke="url(#linearGradient16)">
      <path d="M-84 608 L-64 608 L-64 628 L-84 628 Z" clip-path="url(#clipPath2)" stroke="none"/>
    </g>
    <g text-rendering="optimizeQuality" stroke-miterlimit="1.45" shape-rendering="geometricPrecision" transform="matrix(1,0,0,1,210,-302)" stroke-linecap="butt">
      <path fill="none" d="M-84 608 L-64 608 L-64 628 L-84 628 Z" clip-path="url(#clipPath2)"/>
      <text x="-77.8174" xml:space="preserve" y="622.1562" font-family="sans-serif" clip-path="url(#clipPath2)" stroke="none">1</text>
    </g>
    <g fill="url(#linearGradient17)" text-rendering="optimizeQuality" shape-rendering="geometricPrecision" transform="matrix(1,0,0,1,210,-302)" stroke="url(#linearGradient17)">
      <path d="M52 596 L72 596 L72 616 L52 616 Z" clip-path="url(#clipPath2)" stroke="none"/>
    </g>
    <g text-rendering="optimizeQuality" stroke-miterlimit="1.45" shape-rendering="geometricPrecision" transform="matrix(1,0,0,1,210,-302)" stroke-linecap="butt">
      <path fill="none" d="M52 596 L72 596 L72 616 L52 616 Z" clip-path="url(#clipPath2)"/>
      <text x="58.1826" xml:space="preserve" y="610.1562" font-family="sans-serif" clip-path="url(#clipPath2)" stroke="none">3</text>
    </g>
    <g fill="url(#linearGradient18)" text-rendering="optimizeQuality" shape-rendering="geometricPrecision" transform="matrix(1,0,0,1,210,-302)" stroke="url(#linearGradient18)">
      <path d="M128 707 L148 707 L148 727 L128 727 Z" clip-path="url(#clipPath2)" stroke="none"/>
    </g>
    <g text-rendering="optimizeQuality" stroke-miterlimit="1.45" shape-rendering="geometricPrecision" transform="matrix(1,0,0,1,210,-302)" stroke-linecap="butt">
      <path fill="none" d="M128 707 L148 707 L148 727 L128 727 Z" clip-path="url(#clipPath2)"/>
      <text x="134.1826" xml:space="preserve" y="721.1562" font-family="sans-serif" clip-path="url(#clipPath2)" stroke="none">5</text>
    </g>
    <g fill="url(#linearGradient19)" text-rendering="optimizeQuality" shape-rendering="geometricPrecision" transform="matrix(1,0,0,1,210,-302)" stroke="url(#linearGradient19)">
      <path d="M304 755 L324 755 L324 775 L304 775 Z" clip-path="url(#clipPath2)" stroke="none"/>
    </g>
    <g text-rendering="optimizeQuality" stroke-miterlimit="1.45" shape-rendering="geometricPrecision" transform="matrix(1,0,0,1,210,-302)" stroke-linecap="butt">
      <path fill="none" d="M304 755 L324 755 L324 775 L304 775 Z" clip-path="url(#clipPath2)"/>
      <text x="310.1826" xml:space="preserve" y="769.1562" font-family="sans-serif" clip-path="url(#clipPath2)" stroke="none">2</text>
    </g>
    <g fill="url(#linearGradient20)" text-rendering="optimizeQuality" shape-rendering="geometricPrecision" transform="matrix(1,0,0,1,210,-302)" stroke="url(#linearGradient20)">
      <path d="M371 608 L391 608 L391 628 L371 628 Z" clip-path="url(#clipPath2)" stroke="none"/>
    </g>
    <g text-rendering="optimizeQuality" stroke-miterlimit="1.45" shape-rendering="geometricPrecision" transform="matrix(1,0,0,1,210,-302)" stroke-linecap="butt">
      <path fill="none" d="M371 608 L391 608 L391 628 L371 628 Z" clip-path="url(#clipPath2)"/>
      <text x="377.1826" xml:space="preserve" y="622.1562" font-family="sans-serif" clip-path="url(#clipPath2)" stroke="none">7</text>
    </g>
    <g fill="url(#linearGradient21)" text-rendering="optimizeQuality" shape-rendering="geometricPrecision" transform="matrix(1,0,0,1,210,-302)" stroke="url(#linearGradient21)">
      <path d="M445.5 527 L465.5 527 L465.5 547 L445.5 547 Z" clip-path="url(#clipPath2)" stroke="none"/>
    </g>
    <g text-rendering="optimizeQuality" stroke-miterlimit="1.45" shape-rendering="geometricPrecision" transform="matrix(1,0,0,1,210,-302)" stroke-linecap="butt">
      <path fill="none" d="M445.5 527 L465.5 527 L465.5 547 L445.5 547 Z" clip-path="url(#clipPath2)"/>
      <text x="451.6826" xml:space="preserve" y="541.1562" font-family="sans-serif" clip-path="url(#clipPath2)" stroke="none">4</text>
    </g>
    <g fill="url(#linearGradient22)" text-rendering="optimizeQuality" shape-rendering="geometricPrecision" transform="matrix(1,0,0,1,210,-302)" stroke="url(#linearGradient22)">
      <path d="M515 417 L535 417 L535 437 L515 437 Z" clip-path="url(#clipPath2)" stroke="none"/>
    </g>
    <g text-rendering="optimizeQuality" stroke-miterlimit="1.45" shape-rendering="geometricPrecision" transform="matrix(1,0,0,1,210,-302)" stroke-linecap="butt">
      <path fill="none" d="M515 417 L535 417 L535 437 L515 437 Z" clip-path="url(#clipPath2)"/>
      <text x="521.1826" xml:space="preserve" y="431.1562" font-family="sans-serif" clip-path="url(#clipPath2)" stroke="none">8</text>
    </g>
    <g text-rendering="optimizeQuality" stroke-miterlimit="1.45" shape-rendering="geometricPrecision" transform="matrix(1,0,0,1,210,-302)" stroke-linecap="butt">
      <path fill="none" d="M218.015 347.7053 L146.4584 387.424" clip-path="url(#clipPath2)"/>
    </g>
    <g text-rendering="optimizeQuality" stroke-miterlimit="1.45" shape-rendering="geometricPrecision" transform="matrix(1,0,0,1,210,-302)" stroke-linecap="butt">
      <path d="M139.4637 391.3065 L152.3823 389.8544 L147.3327 386.9387 L147.5291 381.111 Z" clip-path="url(#clipPath2)" stroke="none"/>
      <text x="177.5624" xml:space="preserve" y="357.9924" font-family="sans-serif" clip-path="url(#clipPath2)" stroke="none">a</text>
      <path fill="none" d="M103.2535 407.9651 L21.756 438.2448" clip-path="url(#clipPath2)"/>
      <path d="M14.2569 441.031 L27.247 441.5386 L22.6934 437.8965 L23.7642 432.1647 Z" clip-path="url(#clipPath2)" stroke="none"/>
      <text x="45.9491" xml:space="preserve" y="400.5345" font-family="sans-serif" clip-path="url(#clipPath2)" stroke="none">t</text>
      <path fill="none" d="M-24.4515 449.0605 L-127.0274 454.5131" clip-path="url(#clipPath2)"/>
      <path d="M-135.0161 454.9377 L-122.7677 459.2937 L-126.0288 454.46 L-123.2985 449.3078 Z" clip-path="url(#clipPath2)" stroke="none"/>
      <text x="-87.9033" y="426.1139" clip-path="url(#clipPath2)" fill="red" font-family="sans-serif" stroke="none" xml:space="preserve">lεε</text>
      <path fill="none" d="M-14.2225 465.4866 L-60.4074 548.5529" clip-path="url(#clipPath2)"/>
      <path d="M-64.2949 555.5448 L-54.0937 547.4866 L-59.9215 547.6789 L-62.8336 542.6272 Z" clip-path="url(#clipPath2)" stroke="none"/>
      <text x="-99.3555" xml:space="preserve" y="514.3593" font-family="sans-serif" clip-path="url(#clipPath2)" stroke="none">εεεεεεεε</text>
      <path fill="none" d="M114.6611 419.5918 L72.2785 526.9611" clip-path="url(#clipPath2)"/>
      <path d="M69.3412 534.4023 L78.398 525.0762 L72.6457 526.0309 L69.0964 521.4046 Z" clip-path="url(#clipPath2)" stroke="none"/>
      <text x="38.6213" y="481.1562" clip-path="url(#clipPath2)" fill="red" font-family="sans-serif" stroke="none" xml:space="preserve">lεεεεεε</text>
      <path fill="none" d="M238.6469 357.7283 L250.5898 432.6014" clip-path="url(#clipPath2)"/>
      <path d="M251.8499 440.5016 L254.8973 427.8638 L250.4323 431.6139 L245.0221 429.439 Z" clip-path="url(#clipPath2)" stroke="none"/>
      <text x="273.2767" xml:space="preserve" y="403.2812" font-family="sans-serif" clip-path="url(#clipPath2)" stroke="none">t</text>
      <path fill="none" d="M251.8531 479.9783 L239.9102 554.8514" clip-path="url(#clipPath2)"/>
      <path d="M238.6501 562.7516 L245.4779 551.689 L240.0677 553.864 L235.6027 550.1138 Z" clip-path="url(#clipPath2)" stroke="none"/>
      <text x="211.194" xml:space="preserve" y="525.5312" font-family="sans-serif" clip-path="url(#clipPath2)" stroke="none">a</text>
      <path fill="none" d="M220.7655 596.0255 L158.6239 653.0683" clip-path="url(#clipPath2)"/>
      <path d="M152.7305 658.4781 L164.9519 654.0468 L159.3606 652.392 L158.1895 646.6799 Z" clip-path="url(#clipPath2)" stroke="none"/>
      <text x="162.5547" xml:space="preserve" y="600.985" font-family="sans-serif" clip-path="url(#clipPath2)" stroke="none">εεεε</text>
      <path fill="none" d="M246.1749 599.4303 L299.0527 683.2938" clip-path="url(#clipPath2)"/>
      <path d="M303.3195 690.0609 L301.1487 677.2434 L298.5193 682.4479 L292.6898 682.577 Z" clip-path="url(#clipPath2)" stroke="none"/>
      <text x="269.6913" y="620.6406" clip-path="url(#clipPath2)" fill="red" font-family="sans-serif" stroke="none" xml:space="preserve">εεεεεεε</text>
      <path fill="none" d="M269.9194 473.6005 L360.1499 554.3425" clip-path="url(#clipPath2)"/>
      <path d="M366.1115 559.6772 L360.5033 547.9491 L359.4047 553.6756 L353.8349 555.4011 Z" clip-path="url(#clipPath2)" stroke="none"/>
      <text x="335.4626" y="504.8564" clip-path="url(#clipPath2)" fill="red" font-family="sans-serif" stroke="none" xml:space="preserve">εεε</text>
      <path fill="none" d="M254.6479 343.7444 L318.7177 362.9653" clip-path="url(#clipPath2)"/>
      <path d="M326.3803 365.2641 L316.3231 357.0268 L317.7598 362.6779 L313.4496 366.605 Z" clip-path="url(#clipPath2)" stroke="none"/>
      <text x="296.3004" xml:space="preserve" y="330.2813" font-family="sans-serif" clip-path="url(#clipPath2)" stroke="none">lt</text>
      <path fill="none" d="M359.5991 385.2273 L435.7974 462.1183" clip-path="url(#clipPath2)"/>
      <path d="M441.4286 467.8007 L436.5333 455.7576 L435.0935 461.408 L429.4303 462.7966 Z" clip-path="url(#clipPath2)" stroke="none"/>
      <text x="416.6367" y="420.6832" clip-path="url(#clipPath2)" fill="red" font-family="sans-serif" stroke="none" xml:space="preserve">εεεεε</text>
      <path fill="none" d="M365.5272 371.6694 L497.0314 376.0651" clip-path="url(#clipPath2)"/>
      <path d="M505.027 376.3324 L493.2007 370.9343 L496.032 376.0317 L492.8666 380.9287 Z" clip-path="url(#clipPath2)" stroke="none"/>
      <text x="392.5" y="346.8189" clip-path="url(#clipPath2)" fill="red" font-family="sans-serif" stroke="none" xml:space="preserve">ε</text>
      <path fill="none" d="M-155 475.9851 L-155 492.4893" clip-path="url(#clipPath2)"/>
      <path d="M-155 500.4893 L-150 488.4893 L-155 491.4893 L-160 488.4893 Z" clip-path="url(#clipPath2)" stroke="none"/>
      <path fill="none" d="M-74 592.9951 L-74 599.9883" clip-path="url(#clipPath2)"/>
      <path d="M-74 607.9883 L-69 595.9883 L-74 598.9883 L-79 595.9883 Z" clip-path="url(#clipPath2)" stroke="none"/>
      <path fill="none" d="M62 573.0044 L62 587.9789" clip-path="url(#clipPath2)"/>
      <path d="M62 595.9789 L67 583.9789 L62 586.9789 L57 583.9789 Z" clip-path="url(#clipPath2)" stroke="none"/>
      <path fill="none" d="M138 691.9951 L138 698.9883" clip-path="url(#clipPath2)"/>
      <path d="M138 706.9883 L143 694.9883 L138 697.9883 L133 694.9883 Z" clip-path="url(#clipPath2)" stroke="none"/>
      <path fill="none" d="M314 727.0225 L314 747.0235" clip-path="url(#clipPath2)"/>
      <path d="M314 755.0235 L319 743.0235 L314 746.0235 L309 743.0235 Z" clip-path="url(#clipPath2)" stroke="none"/>
      <path fill="none" d="M381 592.9951 L381 599.9883" clip-path="url(#clipPath2)"/>
      <path d="M381 607.9883 L386 595.9883 L381 598.9883 L376 595.9883 Z" clip-path="url(#clipPath2)" stroke="none"/>
      <path fill="none" d="M455.5 502.0073 L455.5 518.9874" clip-path="url(#clipPath2)"/>
      <path d="M455.5 526.9874 L460.5 514.9874 L455.5 517.9874 L450.5 514.9874 Z" clip-path="url(#clipPath2)" stroke="none"/>
      <path fill="none" d="M525 396.9707 L525 409" clip-path="url(#clipPath2)"/>
      <path d="M525 417 L530 405 L525 408 L520 405 Z" clip-path="url(#clipPath2)" stroke="none"/>
    </g>
  </g>
</svg>
