<?xml version="1.0" encoding="UTF-8"?><svg xmlns="http://www.w3.org/2000/svg" xmlns:xlink="http://www.w3.org/1999/xlink" fill-opacity="1" color-rendering="auto" color-interpolation="auto" stroke="black" text-rendering="auto" stroke-linecap="square" width="472" stroke-miterlimit="10" stroke-opacity="1" shape-rendering="auto" fill="black" stroke-dasharray="none" font-weight="normal" stroke-width="1" height="381" font-family="'Dialog'" font-style="normal" stroke-linejoin="miter" font-size="12" stroke-dashoffset="0" image-rendering="auto">
  <!--Generated by ySVG-->
  <defs id="genericDefs"/>
  <g>
    <defs id="defs1">
      <linearGradient x1="195.5" gradientUnits="userSpaceOnUse" x2="275.5" y1="318" y2="358" id="linearGradient1" spreadMethod="reflect">
        <stop stop-opacity="1" stop-color="rgb(232,238,247)" offset="0%"/>
        <stop stop-opacity="1" stop-color="rgb(183,201,227)" offset="100%"/>
      </linearGradient>
      <linearGradient x1="115.5" gradientUnits="userSpaceOnUse" x2="195.5" y1="397" y2="437" id="linearGradient2" spreadMethod="reflect">
        <stop stop-opacity="1" stop-color="rgb(232,238,247)" offset="0%"/>
        <stop stop-opacity="1" stop-color="rgb(183,201,227)" offset="100%"/>
      </linearGradient>
      <linearGradient x1="195.5" gradientUnits="userSpaceOnUse" x2="275.5" y1="397" y2="437" id="linearGradient3" spreadMethod="reflect">
        <stop stop-opacity="1" stop-color="rgb(232,238,247)" offset="0%"/>
        <stop stop-opacity="1" stop-color="rgb(183,201,227)" offset="100%"/>
      </linearGradient>
      <linearGradient x1="407.5" gradientUnits="userSpaceOnUse" x2="487.5" y1="578.7" y2="618.7" id="linearGradient4" spreadMethod="reflect">
        <stop stop-opacity="1" stop-color="rgb(232,238,247)" offset="0%"/>
        <stop stop-opacity="1" stop-color="rgb(183,201,227)" offset="100%"/>
      </linearGradient>
      <linearGradient x1="46" gradientUnits="userSpaceOnUse" x2="126" y1="482.85" y2="522.85" id="linearGradient5" spreadMethod="reflect">
        <stop stop-opacity="1" stop-color="rgb(232,238,247)" offset="0%"/>
        <stop stop-opacity="1" stop-color="rgb(183,201,227)" offset="100%"/>
      </linearGradient>
      <linearGradient x1="115.5" gradientUnits="userSpaceOnUse" x2="195.5" y1="482.85" y2="522.85" id="linearGradient6" spreadMethod="reflect">
        <stop stop-opacity="1" stop-color="rgb(153,204,255)" offset="0%"/>
        <stop stop-opacity="1" stop-color="rgb(183,201,227)" offset="100%"/>
      </linearGradient>
      <linearGradient x1="195.5" gradientUnits="userSpaceOnUse" x2="275.5" y1="482.85" y2="522.85" id="linearGradient7" spreadMethod="reflect">
        <stop stop-opacity="1" stop-color="rgb(153,204,255)" offset="0%"/>
        <stop stop-opacity="1" stop-color="rgb(183,201,227)" offset="100%"/>
      </linearGradient>
      <linearGradient x1="301.5" gradientUnits="userSpaceOnUse" x2="381.5" y1="482.85" y2="522.85" id="linearGradient8" spreadMethod="reflect">
        <stop stop-opacity="1" stop-color="rgb(232,238,247)" offset="0%"/>
        <stop stop-opacity="1" stop-color="rgb(183,201,227)" offset="100%"/>
      </linearGradient>
      <linearGradient x1="76" gradientUnits="userSpaceOnUse" x2="96" y1="552.85" y2="572.85" id="linearGradient9" spreadMethod="reflect">
        <stop stop-opacity="1" stop-color="rgb(232,238,247)" offset="0%"/>
        <stop stop-opacity="1" stop-color="rgb(183,201,227)" offset="100%"/>
      </linearGradient>
      <linearGradient x1="145.5" gradientUnits="userSpaceOnUse" x2="165.5" y1="648.7" y2="668.7" id="linearGradient10" spreadMethod="reflect">
        <stop stop-opacity="1" stop-color="rgb(232,238,247)" offset="0%"/>
        <stop stop-opacity="1" stop-color="rgb(183,201,227)" offset="100%"/>
      </linearGradient>
      <linearGradient x1="225.5" gradientUnits="userSpaceOnUse" x2="245.5" y1="648.7" y2="668.7" id="linearGradient11" spreadMethod="reflect">
        <stop stop-opacity="1" stop-color="rgb(232,238,247)" offset="0%"/>
        <stop stop-opacity="1" stop-color="rgb(183,201,227)" offset="100%"/>
      </linearGradient>
      <linearGradient x1="331.5" gradientUnits="userSpaceOnUse" x2="351.5" y1="552.85" y2="572.85" id="linearGradient12" spreadMethod="reflect">
        <stop stop-opacity="1" stop-color="rgb(232,238,247)" offset="0%"/>
        <stop stop-opacity="1" stop-color="rgb(183,201,227)" offset="100%"/>
      </linearGradient>
      <linearGradient x1="437.5" gradientUnits="userSpaceOnUse" x2="457.5" y1="648.7" y2="668.7" id="linearGradient13" spreadMethod="reflect">
        <stop stop-opacity="1" stop-color="rgb(232,238,247)" offset="0%"/>
        <stop stop-opacity="1" stop-color="rgb(183,201,227)" offset="100%"/>
      </linearGradient>
      <linearGradient x1="82" gradientUnits="userSpaceOnUse" x2="102" y1="407" y2="427" id="linearGradient14" spreadMethod="reflect">
        <stop stop-opacity="1" stop-color="rgb(232,238,247)" offset="0%"/>
        <stop stop-opacity="1" stop-color="rgb(183,201,227)" offset="100%"/>
      </linearGradient>
      <linearGradient x1="115.5" gradientUnits="userSpaceOnUse" x2="195.5" y1="578.7" y2="618.7" id="linearGradient15" spreadMethod="reflect">
        <stop stop-opacity="1" stop-color="rgb(232,238,247)" offset="0%"/>
        <stop stop-opacity="1" stop-color="rgb(183,201,227)" offset="100%"/>
      </linearGradient>
      <linearGradient x1="195.5" gradientUnits="userSpaceOnUse" x2="275.5" y1="578.7" y2="618.7" id="linearGradient16" spreadMethod="reflect">
        <stop stop-opacity="1" stop-color="rgb(232,238,247)" offset="0%"/>
        <stop stop-opacity="1" stop-color="rgb(183,201,227)" offset="100%"/>
      </linearGradient>
      <linearGradient x1="301.5" gradientUnits="userSpaceOnUse" x2="381.5" y1="397" y2="437" id="linearGradient17" spreadMethod="reflect">
        <stop stop-opacity="1" stop-color="rgb(153,204,255)" offset="0%"/>
        <stop stop-opacity="1" stop-color="rgb(183,201,227)" offset="100%"/>
      </linearGradient>
      <linearGradient x1="407.5" gradientUnits="userSpaceOnUse" x2="487.5" y1="482.85" y2="522.85" id="linearGradient18" spreadMethod="reflect">
        <stop stop-opacity="1" stop-color="rgb(153,204,255)" offset="0%"/>
        <stop stop-opacity="1" stop-color="rgb(183,201,227)" offset="100%"/>
      </linearGradient>
      <clipPath clipPathUnits="userSpaceOnUse" id="clipPath1">
        <path d="M0 0 L472 0 L472 381 L0 381 L0 0 Z"/>
      </clipPath>
      <clipPath clipPathUnits="userSpaceOnUse" id="clipPath2">
        <path d="M31 303 L503 303 L503 684 L31 684 L31 303 Z"/>
      </clipPath>
    </defs>
    <g fill="white" transform="translate(-31,-303)" stroke="white">
      <rect x="31" width="472" height="381" y="303" clip-path="url(#clipPath2)" stroke="none"/>
    </g>
    <g fill="url(#linearGradient1)" transform="matrix(1,0,0,1,-31,-303)" stroke="url(#linearGradient1)">
      <circle r="20" clip-path="url(#clipPath2)" cx="235.5" cy="338" stroke="none"/>
    </g>
    <g stroke-linecap="butt" transform="matrix(1,0,0,1,-31,-303)" stroke-miterlimit="1.45">
      <circle fill="none" r="20" clip-path="url(#clipPath2)" cx="235.5" cy="338"/>
      <text x="231.6826" xml:space="preserve" y="342.1543" font-family="sans-serif" clip-path="url(#clipPath2)" stroke="none">1</text>
    </g>
    <g fill="url(#linearGradient2)" transform="matrix(1,0,0,1,-31,-303)" stroke="url(#linearGradient2)">
      <circle r="20" clip-path="url(#clipPath2)" cx="155.5" cy="417" stroke="none"/>
    </g>
    <g stroke-linecap="butt" transform="matrix(1,0,0,1,-31,-303)" stroke-miterlimit="1.45">
      <circle fill="none" r="20" clip-path="url(#clipPath2)" cx="155.5" cy="417"/>
      <text x="151.6826" xml:space="preserve" y="421.1543" font-family="sans-serif" clip-path="url(#clipPath2)" stroke="none">2</text>
    </g>
    <g fill="url(#linearGradient3)" transform="matrix(1,0,0,1,-31,-303)" stroke="url(#linearGradient3)">
      <circle r="20" clip-path="url(#clipPath2)" cx="235.5" cy="417" stroke="none"/>
    </g>
    <g stroke-linecap="butt" transform="matrix(1,0,0,1,-31,-303)" stroke-miterlimit="1.45">
      <circle fill="none" r="20" clip-path="url(#clipPath2)" cx="235.5" cy="417"/>
      <text x="231.6826" xml:space="preserve" y="421.1543" font-family="sans-serif" clip-path="url(#clipPath2)" stroke="none">5</text>
    </g>
    <g fill="url(#linearGradient4)" transform="matrix(1,0,0,1,-31,-303)" stroke="url(#linearGradient4)">
      <circle r="20" clip-path="url(#clipPath2)" cx="447.5" cy="598.7" stroke="none"/>
    </g>
    <g stroke-linecap="butt" transform="matrix(1,0,0,1,-31,-303)" stroke-miterlimit="1.45">
      <circle fill="none" r="20" clip-path="url(#clipPath2)" cx="447.5" cy="598.7"/>
      <text x="443.6826" xml:space="preserve" y="602.8543" font-family="sans-serif" clip-path="url(#clipPath2)" stroke="none">8</text>
    </g>
    <g fill="url(#linearGradient5)" transform="matrix(1,0,0,1,-31,-303)" stroke="url(#linearGradient5)">
      <circle r="20" clip-path="url(#clipPath2)" cx="86" cy="502.85" stroke="none"/>
    </g>
    <g stroke-linecap="butt" transform="matrix(1,0,0,1,-31,-303)" stroke-miterlimit="1.45">
      <circle fill="none" r="20" clip-path="url(#clipPath2)" cx="86" cy="502.85"/>
      <text x="82.1826" xml:space="preserve" y="507.0043" font-family="sans-serif" clip-path="url(#clipPath2)" stroke="none">3</text>
    </g>
    <g fill="url(#linearGradient6)" transform="matrix(1,0,0,1,-31,-303)" stroke="url(#linearGradient6)">
      <circle r="20" clip-path="url(#clipPath2)" cx="155.5" cy="502.85" stroke="none"/>
    </g>
    <g stroke-linecap="butt" transform="matrix(1,0,0,1,-31,-303)" stroke-miterlimit="1.45">
      <circle fill="none" r="20" clip-path="url(#clipPath2)" cx="155.5" cy="502.85"/>
    </g>
    <g fill="url(#linearGradient7)" transform="matrix(1,0,0,1,-31,-303)" stroke="url(#linearGradient7)">
      <circle r="20" clip-path="url(#clipPath2)" cx="235.5" cy="502.85" stroke="none"/>
    </g>
    <g stroke-linecap="butt" transform="matrix(1,0,0,1,-31,-303)" stroke-miterlimit="1.45">
      <circle fill="none" r="20" clip-path="url(#clipPath2)" cx="235.5" cy="502.85"/>
    </g>
    <g fill="url(#linearGradient8)" transform="matrix(1,0,0,1,-31,-303)" stroke="url(#linearGradient8)">
      <circle r="20" clip-path="url(#clipPath2)" cx="341.5" cy="502.85" stroke="none"/>
    </g>
    <g stroke-linecap="butt" transform="matrix(1,0,0,1,-31,-303)" stroke-miterlimit="1.45">
      <circle fill="none" r="20" clip-path="url(#clipPath2)" cx="341.5" cy="502.85"/>
      <text x="337.6826" xml:space="preserve" y="507.0043" font-family="sans-serif" clip-path="url(#clipPath2)" stroke="none">7</text>
    </g>
    <g fill="url(#linearGradient9)" transform="matrix(1,0,0,1,-31,-303)" stroke="url(#linearGradient9)">
      <path d="M76 552.85 L96 552.85 L96 572.85 L76 572.85 Z" clip-path="url(#clipPath2)" stroke="none"/>
    </g>
    <g stroke-linecap="butt" transform="matrix(1,0,0,1,-31,-303)" stroke-miterlimit="1.45">
      <path fill="none" d="M76 552.85 L96 552.85 L96 572.85 L76 572.85 Z" clip-path="url(#clipPath2)"/>
      <text x="82.1826" xml:space="preserve" y="567.0043" font-family="sans-serif" clip-path="url(#clipPath2)" stroke="none">1</text>
    </g>
    <g fill="url(#linearGradient10)" transform="matrix(1,0,0,1,-31,-303)" stroke="url(#linearGradient10)">
      <path d="M145.5 648.7 L165.5 648.7 L165.5 668.7 L145.5 668.7 Z" clip-path="url(#clipPath2)" stroke="none"/>
    </g>
    <g stroke-linecap="butt" transform="matrix(1,0,0,1,-31,-303)" stroke-miterlimit="1.45">
      <path fill="none" d="M145.5 648.7 L165.5 648.7 L165.5 668.7 L145.5 668.7 Z" clip-path="url(#clipPath2)"/>
      <text x="151.6826" xml:space="preserve" y="662.8543" font-family="sans-serif" clip-path="url(#clipPath2)" stroke="none">3</text>
    </g>
    <g fill="url(#linearGradient11)" transform="matrix(1,0,0,1,-31,-303)" stroke="url(#linearGradient11)">
      <path d="M225.5 648.7 L245.5 648.7 L245.5 668.7 L225.5 668.7 Z" clip-path="url(#clipPath2)" stroke="none"/>
    </g>
    <g stroke-linecap="butt" transform="matrix(1,0,0,1,-31,-303)" stroke-miterlimit="1.45">
      <path fill="none" d="M225.5 648.7 L245.5 648.7 L245.5 668.7 L225.5 668.7 Z" clip-path="url(#clipPath2)"/>
      <text x="231.6826" xml:space="preserve" y="662.8543" font-family="sans-serif" clip-path="url(#clipPath2)" stroke="none">2</text>
    </g>
    <g fill="url(#linearGradient12)" transform="matrix(1,0,0,1,-31,-303)" stroke="url(#linearGradient12)">
      <path d="M331.5 552.85 L351.5 552.85 L351.5 572.85 L331.5 572.85 Z" clip-path="url(#clipPath2)" stroke="none"/>
    </g>
    <g stroke-linecap="butt" transform="matrix(1,0,0,1,-31,-303)" stroke-miterlimit="1.45">
      <path fill="none" d="M331.5 552.85 L351.5 552.85 L351.5 572.85 L331.5 572.85 Z" clip-path="url(#clipPath2)"/>
      <text x="337.6826" xml:space="preserve" y="567.0043" font-family="sans-serif" clip-path="url(#clipPath2)" stroke="none">5</text>
    </g>
    <g fill="url(#linearGradient13)" transform="matrix(1,0,0,1,-31,-303)" stroke="url(#linearGradient13)">
      <path d="M437.5 648.7 L457.5 648.7 L457.5 668.7 L437.5 668.7 Z" clip-path="url(#clipPath2)" stroke="none"/>
    </g>
    <g stroke-linecap="butt" transform="matrix(1,0,0,1,-31,-303)" stroke-miterlimit="1.45">
      <path fill="none" d="M437.5 648.7 L457.5 648.7 L457.5 668.7 L437.5 668.7 Z" clip-path="url(#clipPath2)"/>
      <text x="443.6826" xml:space="preserve" y="662.8543" font-family="sans-serif" clip-path="url(#clipPath2)" stroke="none">4</text>
    </g>
    <g fill="url(#linearGradient14)" transform="matrix(1,0,0,1,-31,-303)" stroke="url(#linearGradient14)">
      <path d="M82 407 L102 407 L102 427 L82 427 Z" clip-path="url(#clipPath2)" stroke="none"/>
    </g>
    <g stroke-linecap="butt" transform="matrix(1,0,0,1,-31,-303)" stroke-miterlimit="1.45">
      <path fill="none" d="M82 407 L102 407 L102 427 L82 427 Z" clip-path="url(#clipPath2)"/>
      <text x="88.1826" xml:space="preserve" y="421.1543" font-family="sans-serif" clip-path="url(#clipPath2)" stroke="none">6</text>
    </g>
    <g fill="url(#linearGradient15)" transform="matrix(1,0,0,1,-31,-303)" stroke="url(#linearGradient15)">
      <circle r="20" clip-path="url(#clipPath2)" cx="155.5" cy="598.7" stroke="none"/>
    </g>
    <g stroke-linecap="butt" transform="matrix(1,0,0,1,-31,-303)" stroke-miterlimit="1.45">
      <circle fill="none" r="20" clip-path="url(#clipPath2)" cx="155.5" cy="598.7"/>
      <text x="151.6826" xml:space="preserve" y="602.8543" font-family="sans-serif" clip-path="url(#clipPath2)" stroke="none">4</text>
    </g>
    <g fill="url(#linearGradient16)" transform="matrix(1,0,0,1,-31,-303)" stroke="url(#linearGradient16)">
      <circle r="20" clip-path="url(#clipPath2)" cx="235.5" cy="598.7" stroke="none"/>
    </g>
    <g stroke-linecap="butt" transform="matrix(1,0,0,1,-31,-303)" stroke-miterlimit="1.45">
      <circle fill="none" r="20" clip-path="url(#clipPath2)" cx="235.5" cy="598.7"/>
      <text x="231.6826" xml:space="preserve" y="602.8543" font-family="sans-serif" clip-path="url(#clipPath2)" stroke="none">6</text>
    </g>
    <g fill="url(#linearGradient17)" transform="matrix(1,0,0,1,-31,-303)" stroke="url(#linearGradient17)">
      <circle r="20" clip-path="url(#clipPath2)" cx="341.5" cy="417" stroke="none"/>
    </g>
    <g stroke-linecap="butt" transform="matrix(1,0,0,1,-31,-303)" stroke-miterlimit="1.45">
      <circle fill="none" r="20" clip-path="url(#clipPath2)" cx="341.5" cy="417"/>
    </g>
    <g fill="url(#linearGradient18)" transform="matrix(1,0,0,1,-31,-303)" stroke="url(#linearGradient18)">
      <circle r="20" clip-path="url(#clipPath2)" cx="447.5" cy="502.85" stroke="none"/>
    </g>
    <g stroke-linecap="butt" transform="matrix(1,0,0,1,-31,-303)" stroke-miterlimit="1.45">
      <circle fill="none" r="20" clip-path="url(#clipPath2)" cx="447.5" cy="502.85"/>
    </g>
    <g stroke-linecap="butt" transform="matrix(1,0,0,1,-31,-303)" stroke-miterlimit="1.45">
      <path fill="none" d="M221.2617 352.0603 L175.4171 397.3318" clip-path="url(#clipPath2)"/>
    </g>
    <g stroke-linecap="butt" transform="matrix(1,0,0,1,-31,-303)" stroke-miterlimit="1.45">
      <path d="M169.7248 402.953 L181.7765 398.0789 L176.1287 396.6292 L174.7501 390.9635 Z" clip-path="url(#clipPath2)" stroke="none"/>
      <text x="184.5232" xml:space="preserve" y="368.9543" font-family="sans-serif" clip-path="url(#clipPath2)" stroke="none">a</text>
      <path fill="none" d="M235.5 358.02 L235.5 388.9848" clip-path="url(#clipPath2)"/>
      <path d="M235.5 396.9848 L240.5 384.9848 L235.5 387.9848 L230.5 384.9848 Z" clip-path="url(#clipPath2)" stroke="none"/>
      <text x="245.8475" xml:space="preserve" y="377.7543" font-family="sans-serif" clip-path="url(#clipPath2)" stroke="none">t</text>
      <path fill="none" d="M142.9269 432.531 L103.6254 481.0782" clip-path="url(#clipPath2)"/>
      <path d="M98.5917 487.296 L110.0284 481.1153 L104.2546 480.3009 L102.2561 474.8232 Z" clip-path="url(#clipPath2)" stroke="none"/>
      <text x="105.8475" xml:space="preserve" y="458.5543" font-family="sans-serif" clip-path="url(#clipPath2)" stroke="none">t</text>
      <path fill="none" d="M155.5 436.9953 L155.5 474.8814" clip-path="url(#clipPath2)"/>
      <path d="M155.5 482.8814 L160.5 470.8814 L155.5 473.8814 L150.5 470.8814 Z" clip-path="url(#clipPath2)" stroke="none"/>
      <text x="171.333" xml:space="preserve" y="459.3543" font-family="sans-serif" clip-path="url(#clipPath2)" stroke="none">l</text>
      <path fill="none" d="M235.5 436.9953 L235.5 474.8814" clip-path="url(#clipPath2)"/>
      <path d="M235.5 482.8814 L240.5 470.8814 L235.5 473.8814 L230.5 470.8814 Z" clip-path="url(#clipPath2)" stroke="none"/>
      <text x="250.9232" xml:space="preserve" y="459.3543" font-family="sans-serif" clip-path="url(#clipPath2)" stroke="none">a</text>
      <path fill="none" d="M251.0532 429.5966 L319.7597 485.2424" clip-path="url(#clipPath2)"/>
      <path d="M325.9765 490.2775 L319.7982 478.8394 L318.9826 484.6131 L313.5045 486.6104 Z" clip-path="url(#clipPath2)" stroke="none"/>
      <text x="299.7232" xml:space="preserve" y="458.5543" font-family="sans-serif" clip-path="url(#clipPath2)" stroke="none">a</text>
      <path fill="none" d="M86 522.8597 L86 544.8134" clip-path="url(#clipPath2)"/>
      <path d="M86 552.8134 L91 540.8134 L86 543.8134 L81 540.8134 Z" clip-path="url(#clipPath2)" stroke="none"/>
      <path fill="none" d="M341.5 522.8597 L341.5 544.8134" clip-path="url(#clipPath2)"/>
      <path d="M341.5 552.8134 L346.5 540.8134 L341.5 543.8134 L336.5 540.8134 Z" clip-path="url(#clipPath2)" stroke="none"/>
      <path fill="none" d="M447.5 618.7098 L447.5 640.6634" clip-path="url(#clipPath2)"/>
      <path d="M447.5 648.6634 L452.5 636.6634 L447.5 639.6634 L442.5 636.6634 Z" clip-path="url(#clipPath2)" stroke="none"/>
      <path fill="none" d="M135.5012 417 L109.9832 417" clip-path="url(#clipPath2)"/>
      <path d="M101.9832 417 L113.9832 422 L110.9832 417 L113.9832 412 Z" clip-path="url(#clipPath2)" stroke="none"/>
      <path fill="none" d="M155.5 522.8344 L155.5 570.7334" clip-path="url(#clipPath2)"/>
      <path d="M155.5 578.7334 L160.5 566.7334 L155.5 569.7334 L150.5 566.7334 Z" clip-path="url(#clipPath2)" stroke="none"/>
      <text x="169.8475" xml:space="preserve" y="548.9543" font-family="sans-serif" clip-path="url(#clipPath2)" stroke="none">t</text>
      <path fill="none" d="M155.5 618.7098 L155.5 640.6634" clip-path="url(#clipPath2)"/>
      <path d="M155.5 648.6634 L160.5 636.6634 L155.5 639.6634 L150.5 636.6634 Z" clip-path="url(#clipPath2)" stroke="none"/>
      <path fill="none" d="M235.5 522.8344 L235.5 570.7334" clip-path="url(#clipPath2)"/>
      <path d="M235.5 578.7334 L240.5 566.7334 L235.5 569.7334 L230.5 566.7334 Z" clip-path="url(#clipPath2)" stroke="none"/>
      <text x="253.733" xml:space="preserve" y="549.7543" font-family="sans-serif" clip-path="url(#clipPath2)" stroke="none">l</text>
      <path fill="none" d="M235.5 618.7098 L235.5 640.6634" clip-path="url(#clipPath2)"/>
      <path d="M235.5 648.6634 L240.5 636.6634 L235.5 639.6634 L230.5 636.6634 Z" clip-path="url(#clipPath2)" stroke="none"/>
      <path fill="none" d="M251.519 349.9387 L319.0708 400.2839" clip-path="url(#clipPath2)"/>
      <path d="M325.4853 405.0645 L318.8515 393.8846 L318.269 399.6863 L312.8757 401.9026 Z" clip-path="url(#clipPath2)" stroke="none"/>
      <text x="296.133" xml:space="preserve" y="368.9543" font-family="sans-serif" clip-path="url(#clipPath2)" stroke="none">l</text>
      <path fill="none" d="M357.0532 429.5966 L425.7597 485.2424" clip-path="url(#clipPath2)"/>
      <path d="M431.9765 490.2775 L425.7982 478.8394 L424.9826 484.6131 L419.5045 486.6104 Z" clip-path="url(#clipPath2)" stroke="none"/>
      <text x="394.6475" xml:space="preserve" y="446.5543" font-family="sans-serif" clip-path="url(#clipPath2)" stroke="none">t</text>
      <path fill="none" d="M447.5 522.8344 L447.5 570.7334" clip-path="url(#clipPath2)"/>
      <path d="M447.5 578.7334 L452.5 566.7334 L447.5 569.7334 L442.5 566.7334 Z" clip-path="url(#clipPath2)" stroke="none"/>
      <text x="462.9232" xml:space="preserve" y="555.3543" font-family="sans-serif" clip-path="url(#clipPath2)" stroke="none">a</text>
    </g>
  </g>
</svg>
