<?xml version="1.0" encoding="UTF-8"?><svg xmlns="http://www.w3.org/2000/svg" xmlns:xlink="http://www.w3.org/1999/xlink" fill-opacity="1" color-rendering="auto" color-interpolation="auto" stroke="black" text-rendering="auto" stroke-linecap="square" width="407" stroke-miterlimit="10" stroke-opacity="1" shape-rendering="auto" fill="black" stroke-dasharray="none" font-weight="normal" stroke-width="1" height="285" font-family="'Dialog'" font-style="normal" stroke-linejoin="miter" font-size="12" stroke-dashoffset="0" image-rendering="auto">
  <!--Generated by ySVG-->
  <defs id="genericDefs"/>
  <g>
    <defs id="defs1">
      <linearGradient x1="195.5" gradientUnits="userSpaceOnUse" x2="275.5" y1="318" y2="358" id="linearGradient1" spreadMethod="reflect">
        <stop stop-opacity="1" stop-color="rgb(232,238,247)" offset="0%"/>
        <stop stop-opacity="1" stop-color="rgb(183,201,227)" offset="100%"/>
      </linearGradient>
      <linearGradient x1="115.5" gradientUnits="userSpaceOnUse" x2="195.5" y1="397" y2="437" id="linearGradient2" spreadMethod="reflect">
        <stop stop-opacity="1" stop-color="rgb(232,238,247)" offset="0%"/>
        <stop stop-opacity="1" stop-color="rgb(183,201,227)" offset="100%"/>
      </linearGradient>
      <linearGradient x1="195.5" gradientUnits="userSpaceOnUse" x2="275.5" y1="397" y2="437" id="linearGradient3" spreadMethod="reflect">
        <stop stop-opacity="1" stop-color="rgb(232,238,247)" offset="0%"/>
        <stop stop-opacity="1" stop-color="rgb(183,201,227)" offset="100%"/>
      </linearGradient>
      <linearGradient x1="301.5" gradientUnits="userSpaceOnUse" x2="381.5" y1="397" y2="437" id="linearGradient4" spreadMethod="reflect">
        <stop stop-opacity="1" stop-color="rgb(232,238,247)" offset="0%"/>
        <stop stop-opacity="1" stop-color="rgb(183,201,227)" offset="100%"/>
      </linearGradient>
      <linearGradient x1="46" gradientUnits="userSpaceOnUse" x2="126" y1="482.85" y2="522.85" id="linearGradient5" spreadMethod="reflect">
        <stop stop-opacity="1" stop-color="rgb(232,238,247)" offset="0%"/>
        <stop stop-opacity="1" stop-color="rgb(183,201,227)" offset="100%"/>
      </linearGradient>
      <linearGradient x1="115.5" gradientUnits="userSpaceOnUse" x2="195.5" y1="482.85" y2="522.85" id="linearGradient6" spreadMethod="reflect">
        <stop stop-opacity="1" stop-color="rgb(232,238,247)" offset="0%"/>
        <stop stop-opacity="1" stop-color="rgb(183,201,227)" offset="100%"/>
      </linearGradient>
      <linearGradient x1="168.5" gradientUnits="userSpaceOnUse" x2="248.5" y1="482.85" y2="522.85" id="linearGradient7" spreadMethod="reflect">
        <stop stop-opacity="1" stop-color="rgb(232,238,247)" offset="0%"/>
        <stop stop-opacity="1" stop-color="rgb(183,201,227)" offset="100%"/>
      </linearGradient>
      <linearGradient x1="301.5" gradientUnits="userSpaceOnUse" x2="381.5" y1="482.85" y2="522.85" id="linearGradient8" spreadMethod="reflect">
        <stop stop-opacity="1" stop-color="rgb(232,238,247)" offset="0%"/>
        <stop stop-opacity="1" stop-color="rgb(183,201,227)" offset="100%"/>
      </linearGradient>
      <linearGradient x1="76" gradientUnits="userSpaceOnUse" x2="96" y1="552.85" y2="572.85" id="linearGradient9" spreadMethod="reflect">
        <stop stop-opacity="1" stop-color="rgb(232,238,247)" offset="0%"/>
        <stop stop-opacity="1" stop-color="rgb(183,201,227)" offset="100%"/>
      </linearGradient>
      <linearGradient x1="145.5" gradientUnits="userSpaceOnUse" x2="165.5" y1="552.85" y2="572.85" id="linearGradient10" spreadMethod="reflect">
        <stop stop-opacity="1" stop-color="rgb(232,238,247)" offset="0%"/>
        <stop stop-opacity="1" stop-color="rgb(183,201,227)" offset="100%"/>
      </linearGradient>
      <linearGradient x1="198.5" gradientUnits="userSpaceOnUse" x2="218.5" y1="552.85" y2="572.85" id="linearGradient11" spreadMethod="reflect">
        <stop stop-opacity="1" stop-color="rgb(232,238,247)" offset="0%"/>
        <stop stop-opacity="1" stop-color="rgb(183,201,227)" offset="100%"/>
      </linearGradient>
      <linearGradient x1="331.5" gradientUnits="userSpaceOnUse" x2="351.5" y1="552.85" y2="572.85" id="linearGradient12" spreadMethod="reflect">
        <stop stop-opacity="1" stop-color="rgb(232,238,247)" offset="0%"/>
        <stop stop-opacity="1" stop-color="rgb(183,201,227)" offset="100%"/>
      </linearGradient>
      <linearGradient x1="402.5" gradientUnits="userSpaceOnUse" x2="422.5" y1="407" y2="427" id="linearGradient13" spreadMethod="reflect">
        <stop stop-opacity="1" stop-color="rgb(232,238,247)" offset="0%"/>
        <stop stop-opacity="1" stop-color="rgb(183,201,227)" offset="100%"/>
      </linearGradient>
      <linearGradient x1="82" gradientUnits="userSpaceOnUse" x2="102" y1="407" y2="427" id="linearGradient14" spreadMethod="reflect">
        <stop stop-opacity="1" stop-color="rgb(232,238,247)" offset="0%"/>
        <stop stop-opacity="1" stop-color="rgb(183,201,227)" offset="100%"/>
      </linearGradient>
      <clipPath clipPathUnits="userSpaceOnUse" id="clipPath1">
        <path d="M0 0 L407 0 L407 285 L0 285 L0 0 Z"/>
      </clipPath>
      <clipPath clipPathUnits="userSpaceOnUse" id="clipPath2">
        <path d="M31 303 L438 303 L438 588 L31 588 L31 303 Z"/>
      </clipPath>
    </defs>
    <g fill="white" transform="translate(-31,-303)" stroke="white">
      <rect x="31" width="407" height="285" y="303" clip-path="url(#clipPath2)" stroke="none"/>
    </g>
    <g fill="url(#linearGradient1)" transform="matrix(1,0,0,1,-31,-303)" stroke="url(#linearGradient1)">
      <circle r="20" clip-path="url(#clipPath2)" cx="235.5" cy="338" stroke="none"/>
    </g>
    <g stroke-linecap="butt" transform="matrix(1,0,0,1,-31,-303)" stroke-miterlimit="1.45">
      <circle fill="none" r="20" clip-path="url(#clipPath2)" cx="235.5" cy="338"/>
      <text x="231.6826" xml:space="preserve" y="342.1543" font-family="sans-serif" clip-path="url(#clipPath2)" stroke="none">1</text>
    </g>
    <g fill="url(#linearGradient2)" transform="matrix(1,0,0,1,-31,-303)" stroke="url(#linearGradient2)">
      <circle r="20" clip-path="url(#clipPath2)" cx="155.5" cy="417" stroke="none"/>
    </g>
    <g stroke-linecap="butt" transform="matrix(1,0,0,1,-31,-303)" stroke-miterlimit="1.45">
      <circle fill="none" r="20" clip-path="url(#clipPath2)" cx="155.5" cy="417"/>
      <text x="151.6826" xml:space="preserve" y="421.1543" font-family="sans-serif" clip-path="url(#clipPath2)" stroke="none">2</text>
    </g>
    <g fill="url(#linearGradient3)" transform="matrix(1,0,0,1,-31,-303)" stroke="url(#linearGradient3)">
      <circle r="20" clip-path="url(#clipPath2)" cx="235.5" cy="417" stroke="none"/>
    </g>
    <g stroke-linecap="butt" transform="matrix(1,0,0,1,-31,-303)" stroke-miterlimit="1.45">
      <circle fill="none" r="20" clip-path="url(#clipPath2)" cx="235.5" cy="417"/>
      <text x="231.6826" xml:space="preserve" y="421.1543" font-family="sans-serif" clip-path="url(#clipPath2)" stroke="none">5</text>
    </g>
    <g fill="url(#linearGradient4)" transform="matrix(1,0,0,1,-31,-303)" stroke="url(#linearGradient4)">
      <circle r="20" clip-path="url(#clipPath2)" cx="341.5" cy="417" stroke="none"/>
    </g>
    <g stroke-linecap="butt" transform="matrix(1,0,0,1,-31,-303)" stroke-miterlimit="1.45">
      <circle fill="none" r="20" clip-path="url(#clipPath2)" cx="341.5" cy="417"/>
      <text x="337.6826" xml:space="preserve" y="421.1543" font-family="sans-serif" clip-path="url(#clipPath2)" stroke="none">8</text>
    </g>
    <g fill="url(#linearGradient5)" transform="matrix(1,0,0,1,-31,-303)" stroke="url(#linearGradient5)">
      <circle r="20" clip-path="url(#clipPath2)" cx="86" cy="502.85" stroke="none"/>
    </g>
    <g stroke-linecap="butt" transform="matrix(1,0,0,1,-31,-303)" stroke-miterlimit="1.45">
      <circle fill="none" r="20" clip-path="url(#clipPath2)" cx="86" cy="502.85"/>
      <text x="82.1826" xml:space="preserve" y="507.0043" font-family="sans-serif" clip-path="url(#clipPath2)" stroke="none">3</text>
    </g>
    <g fill="url(#linearGradient6)" transform="matrix(1,0,0,1,-31,-303)" stroke="url(#linearGradient6)">
      <circle r="20" clip-path="url(#clipPath2)" cx="155.5" cy="502.85" stroke="none"/>
    </g>
    <g stroke-linecap="butt" transform="matrix(1,0,0,1,-31,-303)" stroke-miterlimit="1.45">
      <circle fill="none" r="20" clip-path="url(#clipPath2)" cx="155.5" cy="502.85"/>
      <text x="151.6826" xml:space="preserve" y="507.0043" font-family="sans-serif" clip-path="url(#clipPath2)" stroke="none">4</text>
    </g>
    <g fill="url(#linearGradient7)" transform="matrix(1,0,0,1,-31,-303)" stroke="url(#linearGradient7)">
      <circle r="20" clip-path="url(#clipPath2)" cx="208.5" cy="502.85" stroke="none"/>
    </g>
    <g stroke-linecap="butt" transform="matrix(1,0,0,1,-31,-303)" stroke-miterlimit="1.45">
      <circle fill="none" r="20" clip-path="url(#clipPath2)" cx="208.5" cy="502.85"/>
      <text x="204.6826" xml:space="preserve" y="507.0043" font-family="sans-serif" clip-path="url(#clipPath2)" stroke="none">6</text>
    </g>
    <g fill="url(#linearGradient8)" transform="matrix(1,0,0,1,-31,-303)" stroke="url(#linearGradient8)">
      <circle r="20" clip-path="url(#clipPath2)" cx="341.5" cy="502.85" stroke="none"/>
    </g>
    <g stroke-linecap="butt" transform="matrix(1,0,0,1,-31,-303)" stroke-miterlimit="1.45">
      <circle fill="none" r="20" clip-path="url(#clipPath2)" cx="341.5" cy="502.85"/>
      <text x="337.6826" xml:space="preserve" y="507.0043" font-family="sans-serif" clip-path="url(#clipPath2)" stroke="none">7</text>
    </g>
    <g fill="url(#linearGradient9)" transform="matrix(1,0,0,1,-31,-303)" stroke="url(#linearGradient9)">
      <path d="M76 552.85 L96 552.85 L96 572.85 L76 572.85 Z" clip-path="url(#clipPath2)" stroke="none"/>
    </g>
    <g stroke-linecap="butt" transform="matrix(1,0,0,1,-31,-303)" stroke-miterlimit="1.45">
      <path fill="none" d="M76 552.85 L96 552.85 L96 572.85 L76 572.85 Z" clip-path="url(#clipPath2)"/>
      <text x="82.1826" xml:space="preserve" y="567.0043" font-family="sans-serif" clip-path="url(#clipPath2)" stroke="none">1</text>
    </g>
    <g fill="url(#linearGradient10)" transform="matrix(1,0,0,1,-31,-303)" stroke="url(#linearGradient10)">
      <path d="M145.5 552.85 L165.5 552.85 L165.5 572.85 L145.5 572.85 Z" clip-path="url(#clipPath2)" stroke="none"/>
    </g>
    <g stroke-linecap="butt" transform="matrix(1,0,0,1,-31,-303)" stroke-miterlimit="1.45">
      <path fill="none" d="M145.5 552.85 L165.5 552.85 L165.5 572.85 L145.5 572.85 Z" clip-path="url(#clipPath2)"/>
      <text x="151.6826" xml:space="preserve" y="567.0043" font-family="sans-serif" clip-path="url(#clipPath2)" stroke="none">3</text>
    </g>
    <g fill="url(#linearGradient11)" transform="matrix(1,0,0,1,-31,-303)" stroke="url(#linearGradient11)">
      <path d="M198.5 552.85 L218.5 552.85 L218.5 572.85 L198.5 572.85 Z" clip-path="url(#clipPath2)" stroke="none"/>
    </g>
    <g stroke-linecap="butt" transform="matrix(1,0,0,1,-31,-303)" stroke-miterlimit="1.45">
      <path fill="none" d="M198.5 552.85 L218.5 552.85 L218.5 572.85 L198.5 572.85 Z" clip-path="url(#clipPath2)"/>
      <text x="204.6826" xml:space="preserve" y="567.0043" font-family="sans-serif" clip-path="url(#clipPath2)" stroke="none">2</text>
    </g>
    <g fill="url(#linearGradient12)" transform="matrix(1,0,0,1,-31,-303)" stroke="url(#linearGradient12)">
      <path d="M331.5 552.85 L351.5 552.85 L351.5 572.85 L331.5 572.85 Z" clip-path="url(#clipPath2)" stroke="none"/>
    </g>
    <g stroke-linecap="butt" transform="matrix(1,0,0,1,-31,-303)" stroke-miterlimit="1.45">
      <path fill="none" d="M331.5 552.85 L351.5 552.85 L351.5 572.85 L331.5 572.85 Z" clip-path="url(#clipPath2)"/>
      <text x="337.6826" xml:space="preserve" y="567.0043" font-family="sans-serif" clip-path="url(#clipPath2)" stroke="none">5</text>
    </g>
    <g fill="url(#linearGradient13)" transform="matrix(1,0,0,1,-31,-303)" stroke="url(#linearGradient13)">
      <path d="M402.5 407 L422.5 407 L422.5 427 L402.5 427 Z" clip-path="url(#clipPath2)" stroke="none"/>
    </g>
    <g stroke-linecap="butt" transform="matrix(1,0,0,1,-31,-303)" stroke-miterlimit="1.45">
      <path fill="none" d="M402.5 407 L422.5 407 L422.5 427 L402.5 427 Z" clip-path="url(#clipPath2)"/>
      <text x="408.6826" xml:space="preserve" y="421.1543" font-family="sans-serif" clip-path="url(#clipPath2)" stroke="none">4</text>
    </g>
    <g fill="url(#linearGradient14)" transform="matrix(1,0,0,1,-31,-303)" stroke="url(#linearGradient14)">
      <path d="M82 407 L102 407 L102 427 L82 427 Z" clip-path="url(#clipPath2)" stroke="none"/>
    </g>
    <g stroke-linecap="butt" transform="matrix(1,0,0,1,-31,-303)" stroke-miterlimit="1.45">
      <path fill="none" d="M82 407 L102 407 L102 427 L82 427 Z" clip-path="url(#clipPath2)"/>
      <text x="88.1826" xml:space="preserve" y="421.1543" font-family="sans-serif" clip-path="url(#clipPath2)" stroke="none">6</text>
    </g>
    <g stroke-linecap="butt" transform="matrix(1,0,0,1,-31,-303)" stroke-miterlimit="1.45">
      <path fill="none" d="M221.2617 352.0603 L175.4171 397.3318" clip-path="url(#clipPath2)"/>
    </g>
    <g stroke-linecap="butt" transform="matrix(1,0,0,1,-31,-303)" stroke-miterlimit="1.45">
      <path d="M169.7248 402.953 L181.7765 398.0789 L176.1287 396.6292 L174.7501 390.9635 Z" clip-path="url(#clipPath2)" stroke="none"/>
      <text x="155.236" xml:space="preserve" y="373.5268" font-family="sans-serif" clip-path="url(#clipPath2)" stroke="none">a [1,1]</text>
      <path fill="none" d="M235.5 358.02 L235.5 388.9848" clip-path="url(#clipPath2)"/>
      <path d="M235.5 396.9848 L240.5 384.9848 L235.5 387.9848 L230.5 384.9848 Z" clip-path="url(#clipPath2)" stroke="none"/>
      <text x="242.1528" xml:space="preserve" y="381.7839" font-family="sans-serif" clip-path="url(#clipPath2)" stroke="none">t [2,2]</text>
      <path fill="none" d="M251.519 349.9387 L319.0708 400.2839" clip-path="url(#clipPath2)"/>
      <path d="M325.4853 405.0645 L318.8515 393.8846 L318.269 399.6863 L312.8757 401.9026 Z" clip-path="url(#clipPath2)" stroke="none"/>
      <text x="291.5933" xml:space="preserve" y="368.6469" font-family="sans-serif" clip-path="url(#clipPath2)" stroke="none">lta [4,6]</text>
      <path fill="none" d="M142.9269 432.531 L103.6254 481.0782" clip-path="url(#clipPath2)"/>
      <path d="M98.5917 487.296 L110.0284 481.1153 L104.2546 480.3009 L102.2561 474.8232 Z" clip-path="url(#clipPath2)" stroke="none"/>
      <text x="64.6423" xml:space="preserve" y="456.5557" font-family="sans-serif" clip-path="url(#clipPath2)" stroke="none">talta [2,6]</text>
      <path fill="none" d="M155.5 436.9953 L155.5 474.8814" clip-path="url(#clipPath2)"/>
      <path d="M155.5 482.8814 L160.5 470.8814 L155.5 473.8814 L150.5 470.8814 Z" clip-path="url(#clipPath2)" stroke="none"/>
      <text x="158.7729" xml:space="preserve" y="460.4043" font-family="sans-serif" clip-path="url(#clipPath2)" stroke="none">lta [4,6]</text>
      <path fill="none" d="M229.5015 436.0731 L216.8991 476.1441" clip-path="url(#clipPath2)"/>
      <path d="M214.4989 483.7755 L222.8688 473.8284 L217.1991 475.1901 L213.3295 470.8282 Z" clip-path="url(#clipPath2)" stroke="none"/>
      <text x="225.9354" xml:space="preserve" y="464.1092" font-family="sans-serif" clip-path="url(#clipPath2)" stroke="none">alta [3,6]</text>
      <path fill="none" d="M251.0532 429.5966 L319.7597 485.2424" clip-path="url(#clipPath2)"/>
      <path d="M325.9765 490.2775 L319.7982 478.8394 L318.9826 484.6131 L313.5045 486.6104 Z" clip-path="url(#clipPath2)" stroke="none"/>
      <text x="293.9424" xml:space="preserve" y="456.1543" font-family="sans-serif" clip-path="url(#clipPath2)" stroke="none">a [6,6]</text>
      <path fill="none" d="M86 522.8597 L86 544.8134" clip-path="url(#clipPath2)"/>
      <path d="M86 552.8134 L91 540.8134 L86 543.8134 L81 540.8134 Z" clip-path="url(#clipPath2)" stroke="none"/>
      <path fill="none" d="M155.5 522.8597 L155.5 544.8134" clip-path="url(#clipPath2)"/>
      <path d="M155.5 552.8134 L160.5 540.8134 L155.5 543.8134 L150.5 540.8134 Z" clip-path="url(#clipPath2)" stroke="none"/>
      <path fill="none" d="M208.5 522.8597 L208.5 544.8134" clip-path="url(#clipPath2)"/>
      <path d="M208.5 552.8134 L213.5 540.8134 L208.5 543.8134 L203.5 540.8134 Z" clip-path="url(#clipPath2)" stroke="none"/>
      <path fill="none" d="M341.5 522.8597 L341.5 544.8134" clip-path="url(#clipPath2)"/>
      <path d="M341.5 552.8134 L346.5 540.8134 L341.5 543.8134 L336.5 540.8134 Z" clip-path="url(#clipPath2)" stroke="none"/>
      <path fill="none" d="M361.5034 417 L394.4899 417" clip-path="url(#clipPath2)"/>
      <path d="M402.4899 417 L390.4899 412 L393.4899 417 L390.4899 422 Z" clip-path="url(#clipPath2)" stroke="none"/>
      <path fill="none" d="M135.5012 417 L109.9832 417" clip-path="url(#clipPath2)"/>
      <path d="M101.9832 417 L113.9832 422 L110.9832 417 L113.9832 412 Z" clip-path="url(#clipPath2)" stroke="none"/>
    </g>
  </g>
</svg>
